<svg width="1280" height="720" xmlns="http://www.w3.org/2000/svg" xmlns:xlink="http://www.w3.org/1999/xlink" overflow="hidden"><defs><clipPath id="clip0"><rect x="0" y="0" width="1280" height="720"/></clipPath><clipPath id="clip1"><rect x="177" y="128" width="653" height="225"/></clipPath><clipPath id="clip2"><rect x="177" y="8" width="294" height="606"/></clipPath><clipPath id="clip3"><rect x="177" y="8" width="294" height="606"/></clipPath><clipPath id="clip4"><rect x="177" y="8" width="294" height="606"/></clipPath><clipPath id="clip5"><rect x="177" y="8" width="294" height="606"/></clipPath><clipPath id="clip6"><rect x="470" y="222" width="360" height="203"/></clipPath><clipPath id="clip7"><rect x="470" y="264" width="360" height="203"/></clipPath><clipPath id="clip8"><rect x="177" y="77" width="653" height="203"/></clipPath><clipPath id="clip9"><rect x="470" y="181" width="360" height="202"/></clipPath></defs><g clip-path="url(#clip0)"><rect x="0" y="0" width="1280" height="720" fill="#FFFFFF"/><path d="M177.861 219.948 829.302 219.948 829.302 262.13 177.861 262.13Z" fill="#FFD966" fill-rule="evenodd"/><path d="M177.861 219.281 177.861 262.796" stroke="#000000" stroke-width="1.33333" stroke-linejoin="round" stroke-miterlimit="10" fill="none" fill-rule="evenodd"/><path d="M829.302 219.281 829.302 262.796" stroke="#000000" stroke-width="1.33333" stroke-linejoin="round" stroke-miterlimit="10" fill="none" fill-rule="evenodd"/><path d="M177.194 219.948 829.969 219.948" stroke="#000000" stroke-width="1.33333" stroke-linejoin="round" stroke-miterlimit="10" fill="none" fill-rule="evenodd"/><path d="M177.194 262.13 829.969 262.13" stroke="#000000" stroke-width="1.33333" stroke-linejoin="round" stroke-miterlimit="10" fill="none" fill-rule="evenodd"/><g clip-path="url(#clip1)"><text fill="#FF0000" font-family="DengXian,DengXian_MSFontService,sans-serif" font-weight="700" font-size="24" transform="translate(187.461 250)">0x55679928</text></g><text fill="#FF0000" font-family="DengXian,DengXian_MSFontService,sans-serif" font-weight="700" font-size="24" transform="translate(325.961 250)">(</text><text fill="#FF0000" font-family="DengXian,DengXian_MSFontService,sans-serif" font-weight="700" font-size="24" transform="translate(333.961 250)">返回地址</text><text fill="#FF0000" font-family="DengXian,DengXian_MSFontService,sans-serif" font-weight="700" font-size="24" transform="translate(429.961 250)">rsp</text><text fill="#FF0000" font-family="DengXian,DengXian_MSFontService,sans-serif" font-weight="700" font-size="24" transform="translate(463.627 250)">)</text><text fill="#FF0000" font-family="DengXian,DengXian_MSFontService,sans-serif" font-weight="400" font-size="27" transform="translate(478.961 250)">28 99 67 55 00 00 00 00</text><path d="M177.861 262.15 177.861 389.184" stroke="#000000" stroke-width="1.33333" stroke-linejoin="round" stroke-miterlimit="10" fill="none" fill-rule="evenodd"/><path d="M470.326 262.15 470.326 389.184" stroke="#000000" stroke-width="1.33333" stroke-linejoin="round" stroke-miterlimit="10" fill="none" fill-rule="evenodd"/><path d="M177.194 262.816 470.992 262.816" stroke="#000000" stroke-width="1.33333" stroke-linejoin="round" stroke-miterlimit="10" fill="none" fill-rule="evenodd"/><path d="M177.194 388.518 470.992 388.518" stroke="#000000" stroke-width="1.33333" stroke-linejoin="round" stroke-miterlimit="10" fill="none" fill-rule="evenodd"/><g clip-path="url(#clip2)"><text font-family="DengXian,DengXian_MSFontService,sans-serif" font-weight="400" font-size="24" transform="translate(187.461 290)">movq</text></g><text font-family="DengXian,DengXian_MSFontService,sans-serif" font-weight="400" font-size="24" transform="translate(252.961 290)">$0x1d663c28,%rdi</text><g clip-path="url(#clip3)"><text font-family="DengXian,DengXian_MSFontService,sans-serif" font-weight="400" font-size="24" transform="translate(187.461 319)">pushq</text></g><text font-family="DengXian,DengXian_MSFontService,sans-serif" font-weight="400" font-size="24" transform="translate(264.294 319)">$0x40171b</text><g clip-path="url(#clip4)"><text fill="#FF0000" font-family="DengXian,DengXian_MSFontService,sans-serif" font-weight="400" font-size="24" transform="translate(377.294 319)">[touch2]</text></g><g clip-path="url(#clip5)"><text font-family="DengXian,DengXian_MSFontService,sans-serif" font-weight="400" font-size="24" transform="translate(187.461 348)">retq</text></g><path d="M470.326 303.487 470.326 347.003" stroke="#000000" stroke-width="1.33333" stroke-linejoin="round" stroke-miterlimit="10" fill="none" fill-rule="evenodd"/><path d="M829.43 303.487 829.43 347.003" stroke="#000000" stroke-width="1.33333" stroke-linejoin="round" stroke-miterlimit="10" fill="none" fill-rule="evenodd"/><path d="M469.659 304.154 830.097 304.154" stroke="#000000" stroke-width="1.33333" stroke-linejoin="round" stroke-miterlimit="10" fill="none" fill-rule="evenodd"/><path d="M469.659 346.336 830.097 346.336" stroke="#000000" stroke-width="1.33333" stroke-linejoin="round" stroke-miterlimit="10" fill="none" fill-rule="evenodd"/><g clip-path="url(#clip6)"><text font-family="DengXian,DengXian_MSFontService,sans-serif" font-weight="400" font-size="24" transform="translate(479.926 331)">1b 17 40 00 c3 00 00 00</text></g><path d="M470.326 345.669 470.326 389.184" stroke="#000000" stroke-width="1.33333" stroke-linejoin="round" stroke-miterlimit="10" fill="none" fill-rule="evenodd"/><path d="M829.43 345.669 829.43 389.184" stroke="#000000" stroke-width="1.33333" stroke-linejoin="round" stroke-miterlimit="10" fill="none" fill-rule="evenodd"/><path d="M469.659 346.336 830.097 346.336" stroke="#000000" stroke-width="1.33333" stroke-linejoin="round" stroke-miterlimit="10" fill="none" fill-rule="evenodd"/><path d="M469.659 388.518 830.097 388.518" stroke="#000000" stroke-width="1.33333" stroke-linejoin="round" stroke-miterlimit="10" fill="none" fill-rule="evenodd"/><g clip-path="url(#clip7)"><text font-family="DengXian,DengXian_MSFontService,sans-serif" font-weight="400" font-size="24" transform="translate(479.926 373)">48 c7</text></g><text font-family="DengXian,DengXian_MSFontService,sans-serif" font-weight="400" font-size="24" transform="translate(541.759 373)">c7</text><text font-family="DengXian,DengXian_MSFontService,sans-serif" font-weight="400" font-size="24" transform="translate(571.759 373)">28 3c 66 1d 68</text><text font-family="DengXian,DengXian_MSFontService,sans-serif" font-weight="700" font-size="32" transform="translate(51.4209 381)">rsp</text><path d="M101 369 148.333 369 148.333 373 101 373ZM146.333 365 158.333 371 146.333 377Z"/><text font-family="DengXian,DengXian_MSFontService,sans-serif" font-weight="700" font-size="32" transform="translate(12.1018 250)">rsp+24</text><path d="M124 235 148.549 235 148.549 239 124 239ZM146.549 231 158.549 237 146.549 243Z"/><path d="M177.86 158.372 177.86 220.615" stroke="#000000" stroke-width="1.33333" stroke-linejoin="round" stroke-miterlimit="10" fill="none" fill-rule="evenodd"/><path d="M829.302 158.372 829.302 220.615" stroke="#000000" stroke-width="1.33333" stroke-linejoin="round" stroke-miterlimit="10" fill="none" fill-rule="evenodd"/><path d="M177.194 159.039 829.968 159.039" stroke="#000000" stroke-width="1.33333" stroke-linejoin="round" stroke-miterlimit="10" fill="none" fill-rule="evenodd"/><path d="M177.194 219.948 829.968 219.948" stroke="#000000" stroke-width="1.33333" stroke-linejoin="round" stroke-miterlimit="10" fill="none" fill-rule="evenodd"/><g clip-path="url(#clip8)"><text font-family="DengXian,DengXian_MSFontService,sans-serif" font-weight="700" font-size="24" transform="translate(187.46 186)">…</text></g><path d="M930.5 157.5C939.889 157.5 947.5 158.769 947.5 160.333L947.5 206.167C947.5 207.732 955.111 209 964.5 209 955.111 209 947.5 210.268 947.5 211.833L947.5 257.667C947.5 259.232 939.889 260.5 930.5 260.5" stroke="#000000" stroke-width="1.33333" stroke-miterlimit="8" fill="none" fill-rule="evenodd"/><text font-family="DengXian,DengXian_MSFontService,sans-serif" font-weight="400" font-size="24" transform="translate(983.382 225)">test</text><text font-family="DengXian,DengXian_MSFontService,sans-serif" font-weight="400" font-size="24" transform="translate(1020.88 225)">的栈帧</text><path d="M930.5 262.5C939.889 262.5 947.5 263.769 947.5 265.333L947.5 322.167C947.5 323.732 955.111 325 964.5 325 955.111 325 947.5 326.269 947.5 327.833L947.5 384.667C947.5 386.232 939.889 387.5 930.5 387.5" stroke="#000000" stroke-width="1.33333" stroke-miterlimit="8" fill="none" fill-rule="evenodd"/><text font-family="DengXian,DengXian_MSFontService,sans-serif" font-weight="400" font-size="24" transform="translate(983.382 314)">getbuf</text><text font-family="DengXian,DengXian_MSFontService,sans-serif" font-weight="400" font-size="24" transform="translate(1051.21 314)">的栈帧</text><text font-family="DengXian,DengXian_MSFontService,sans-serif" font-weight="400" font-size="24" transform="translate(1123.21 314)">(</text><text font-family="DengXian,DengXian_MSFontService,sans-serif" font-weight="400" font-size="24" transform="translate(1130.21 314)">缓冲区</text><text font-family="DengXian,DengXian_MSFontService,sans-serif" font-weight="400" font-size="24" transform="translate(1202.21 314)">)</text><text fill="#FF0000" font-family="DengXian,DengXian_MSFontService,sans-serif" font-weight="400" font-size="24" transform="translate(983.382 343)">存放注入代码</text><text font-family="DengXian,DengXian_MSFontService,sans-serif" font-weight="400" font-size="24" transform="translate(467.72 431)">图</text><text font-family="DengXian,DengXian_MSFontService,sans-serif" font-weight="400" font-size="24" transform="translate(491.72 431)">2</text><text font-family="DengXian,DengXian_MSFontService,sans-serif" font-weight="400" font-size="24" transform="translate(504.387 431)">-</text><text font-family="DengXian,DengXian_MSFontService,sans-serif" font-weight="400" font-size="24" transform="translate(516.387 431)">对</text><text font-family="DengXian,DengXian_MSFontService,sans-serif" font-weight="400" font-size="24" transform="translate(540.387 431)">Level2</text><text font-family="DengXian,DengXian_MSFontService,sans-serif" font-weight="400" font-size="24" transform="translate(605.387 431)">攻击之后栈的情况</text><text font-family="DengXian,DengXian_MSFontService,sans-serif" font-weight="400" font-size="19" transform="translate(838.902 373)">0x55679928</text><text font-family="DengXian,DengXian_MSFontService,sans-serif" font-weight="400" font-size="19" transform="translate(838.902 330)">0x55679930</text><text font-family="DengXian,DengXian_MSFontService,sans-serif" font-weight="400" font-size="19" transform="translate(842.422 287)">0x55679938</text><text font-family="DengXian,DengXian_MSFontService,sans-serif" font-weight="400" font-size="19" transform="translate(840.048 245)">0x55679940</text><path d="M470.197 262.268 470.197 305.783" stroke="#000000" stroke-width="1.33333" stroke-linejoin="round" stroke-miterlimit="10" fill="none" fill-rule="evenodd"/><path d="M829.302 262.268 829.302 305.783" stroke="#000000" stroke-width="1.33333" stroke-linejoin="round" stroke-miterlimit="10" fill="none" fill-rule="evenodd"/><path d="M469.531 262.935 829.968 262.935" stroke="#000000" stroke-width="1.33333" stroke-linejoin="round" stroke-miterlimit="10" fill="none" fill-rule="evenodd"/><path d="M469.531 305.117 829.968 305.117" stroke="#000000" stroke-width="1.33333" stroke-linejoin="round" stroke-miterlimit="10" fill="none" fill-rule="evenodd"/><g clip-path="url(#clip9)"><text font-family="DengXian,DengXian_MSFontService,sans-serif" font-weight="400" font-size="24" transform="translate(479.797 290)">00 00 00 00 00 00 00 00</text></g><path d="M1129.29 280.662 1127.91 166.174 1129.25 166.158 1130.62 280.646ZM1124.6 167.547 1128.5 159.5 1132.6 167.451Z"/><text font-family="DengXian,DengXian_MSFontService,sans-serif" font-weight="400" font-size="24" transform="translate(1145.6 235)">返回</text><path d="M1117.21 200.621 1123.72 198.571 1128 212.156 1132.28 198.571 1138.79 200.621 1131.58 223.5 1138.79 246.379 1132.28 248.429 1128 234.844 1123.72 248.429 1117.21 246.379 1124.42 223.5Z" stroke="#000000" stroke-width="1.33333" stroke-miterlimit="8" fill-rule="evenodd"/><path d="M0.0452032 0.665132-6.3923 1.10263-6.30179 1.09021-12.6143 2.40271-12.5429 2.3837-18.8554 4.4462-18.7819 4.41726-24.8444 7.22976-24.791 7.20195-30.7285 10.6395-30.6711 10.6022-36.3586 14.7272-36.3089 14.6874-41.6214 19.3749-41.5853 19.3405-46.5853 24.4655-46.5475 24.4234-51.1725 30.0484-51.1408 30.0065-55.3283 36.0065-55.2955 35.9545-58.9205 42.3295-58.897 42.2844-62.022 48.9094-61.9985 48.8528-64.4985 55.7278-64.4796 55.6671-66.2921 62.6671-66.2799 62.6096-67.4674 69.7346-67.4592 69.6597-67.8342 76.8472-67.8412 76.7103-67.2787 80.3353-67.3309 80.1608-65.7059 83.7233-65.7803 83.5985-63.0928 87.161-63.1658 87.0792-59.4158 90.6417-59.4716 90.5942-54.7841 94.1567-54.8381 94.1197-49.1506 97.6197-49.1907 97.5969-42.6282 101.034-42.6578 101.02-35.2203 104.457-35.2516 104.444-27.0016 107.756-27.0225 107.748-17.8975 111.061-17.9202 111.053-8.04521 114.241-8.06189 114.235 2.56311 117.36 2.54921 117.356 13.8617 120.419 13.85 120.416 25.7875 123.416 25.77 123.412 38.395 126.224 38.389 126.223 51.5765 129.035 51.562 129.033 65.3745 131.658 65.3652 131.656 79.6152 134.156 79.6082 134.155 94.4207 136.592 94.4098 136.59 109.66 138.84 109.652 138.839 125.339 140.964 125.33 140.963 141.392 142.901 141.383 142.9 174.508 146.4 174.492 146.398 208.742 149.211 208.727 149.209 243.789 151.272 243.775 151.271 279.462 152.584 279.444 152.583 308.701 152.891 308.686 154.224 279.422 153.917 243.718 152.603 208.641 150.54 174.375 147.726 141.238 144.225 125.165 142.286 109.469 140.16 94.2097 137.909 79.3883 135.47 65.1302 132.968 51.3057 130.341 38.108 127.526 25.4712 124.711 13.5191 121.708 2.19382 118.642-8.44648 115.512-18.3412 112.318-27.488 108.998-35.7642 105.675-43.2322 102.223-49.8298 98.7673-55.5648 95.2381-60.3076 91.6336-64.1241 88.0079-66.8887 84.3432-68.5822 80.6305-69.1693 76.8466-68.7888 69.5526-67.5903 62.3614-65.7624 55.3021-63.241 48.3683-60.0921 41.6926-56.4393 35.2687-52.2191 29.2219-47.5595 23.5547-42.5223 18.3916-37.1672 13.6665-31.4262 9.50271-25.4329 6.03294-19.3072 3.19109-12.9219 1.10482-6.52838-0.224528-0.0452032-0.665132ZM307.402 149.544 315.36 153.628 307.318 157.544Z" fill="#FF0000" transform="matrix(-1 1.22465e-16 1.22465e-16 1 1148.86 239.5)"/><path d="M837.288 388.662 835.913 274.174 837.247 274.158 838.621 388.646ZM832.596 275.547 836.5 267.5 840.596 275.451Z" fill="#FF0000"/></g></svg>