<svg width="1280" height="720" xmlns="http://www.w3.org/2000/svg" xmlns:xlink="http://www.w3.org/1999/xlink" overflow="hidden"><defs><clipPath id="clip0"><rect x="0" y="0" width="1280" height="720"/></clipPath><clipPath id="clip1"><rect x="402" y="354" width="305" height="203"/></clipPath><clipPath id="clip2"><rect x="402" y="466" width="305" height="203"/></clipPath><clipPath id="clip3"><rect x="402" y="504" width="305" height="203"/></clipPath><clipPath id="clip4"><rect x="402" y="543" width="305" height="203"/></clipPath><clipPath id="clip5"><rect x="402" y="-44" width="305" height="203"/></clipPath><clipPath id="clip6"><rect x="402" y="316" width="305" height="202"/></clipPath><clipPath id="clip7"><rect x="402" y="122" width="305" height="203"/></clipPath><clipPath id="clip8"><rect x="402" y="80" width="305" height="203"/></clipPath><clipPath id="clip9"><rect x="401" y="38" width="306" height="202"/></clipPath><clipPath id="clip10"><rect x="401" y="-5" width="305" height="203"/></clipPath><clipPath id="clip11"><rect x="402" y="428" width="305" height="203"/></clipPath><clipPath id="clip12"><rect x="402" y="393" width="305" height="202"/></clipPath><clipPath id="clip13"><rect x="402" y="278" width="305" height="202"/></clipPath><clipPath id="clip14"><rect x="401" y="241" width="306" height="202"/></clipPath><clipPath id="clip15"><rect x="401" y="203" width="306" height="202"/></clipPath><clipPath id="clip16"><rect x="401" y="164" width="306" height="203"/></clipPath></defs><g clip-path="url(#clip0)"><rect x="0" y="0" width="1280" height="720" fill="#FFFFFF"/><path d="M402.377 436.312 706.733 436.312 706.733 474.712 402.377 474.712Z" fill="#FFD966" fill-rule="evenodd"/><path d="M402.377 435.645 402.377 475.379" stroke="#000000" stroke-width="1.33333" stroke-linejoin="round" stroke-miterlimit="10" fill="none" fill-rule="evenodd"/><path d="M706.733 435.645 706.733 475.379" stroke="#000000" stroke-width="1.33333" stroke-linejoin="round" stroke-miterlimit="10" fill="none" fill-rule="evenodd"/><path d="M401.71 436.312 707.4 436.312" stroke="#000000" stroke-width="1.33333" stroke-linejoin="round" stroke-miterlimit="10" fill="none" fill-rule="evenodd"/><path d="M401.71 474.712 707.4 474.712" stroke="#000000" stroke-width="1.33333" stroke-linejoin="round" stroke-miterlimit="10" fill="none" fill-rule="evenodd"/><g clip-path="url(#clip1)"><text fill="#FF0000" font-family="DengXian,DengXian_MSFontService,sans-serif" font-weight="400" font-size="24" transform="translate(411.977 463)">ac 18 40 00 00 00 00 00</text></g><path d="M402.377 547.773 402.377 587.507" stroke="#000000" stroke-width="1.33333" stroke-linejoin="round" stroke-miterlimit="10" fill="none" fill-rule="evenodd"/><path d="M706.733 547.773 706.733 587.507" stroke="#000000" stroke-width="1.33333" stroke-linejoin="round" stroke-miterlimit="10" fill="none" fill-rule="evenodd"/><path d="M401.71 548.44 707.4 548.44" stroke="#000000" stroke-width="1.33333" stroke-linejoin="round" stroke-miterlimit="10" fill="none" fill-rule="evenodd"/><path d="M401.71 586.84 707.4 586.84" stroke="#000000" stroke-width="1.33333" stroke-linejoin="round" stroke-miterlimit="10" fill="none" fill-rule="evenodd"/><g clip-path="url(#clip2)"><text font-family="DengXian,DengXian_MSFontService,sans-serif" font-weight="400" font-size="24" transform="translate(411.977 575)">00 00 00 00 00 00 00 00</text></g><path d="M402.377 585.849 402.377 625.582" stroke="#000000" stroke-width="1.33333" stroke-linejoin="round" stroke-miterlimit="10" fill="none" fill-rule="evenodd"/><path d="M706.733 585.849 706.733 625.582" stroke="#000000" stroke-width="1.33333" stroke-linejoin="round" stroke-miterlimit="10" fill="none" fill-rule="evenodd"/><path d="M401.71 586.515 707.4 586.515" stroke="#000000" stroke-width="1.33333" stroke-linejoin="round" stroke-miterlimit="10" fill="none" fill-rule="evenodd"/><path d="M401.71 624.915 707.4 624.915" stroke="#000000" stroke-width="1.33333" stroke-linejoin="round" stroke-miterlimit="10" fill="none" fill-rule="evenodd"/><g clip-path="url(#clip3)"><text font-family="DengXian,DengXian_MSFontService,sans-serif" font-weight="400" font-size="24" transform="translate(411.977 613)">00 00 00 00 00 00 00 00</text></g><path d="M402.376 624.436 402.376 664.17" stroke="#000000" stroke-width="1.33333" stroke-linejoin="round" stroke-miterlimit="10" fill="none" fill-rule="evenodd"/><path d="M706.733 624.436 706.733 664.17" stroke="#000000" stroke-width="1.33333" stroke-linejoin="round" stroke-miterlimit="10" fill="none" fill-rule="evenodd"/><path d="M401.71 625.103 707.4 625.103" stroke="#000000" stroke-width="1.33333" stroke-linejoin="round" stroke-miterlimit="10" fill="none" fill-rule="evenodd"/><path d="M401.71 663.503 707.4 663.503" stroke="#000000" stroke-width="1.33333" stroke-linejoin="round" stroke-miterlimit="10" fill="none" fill-rule="evenodd"/><g clip-path="url(#clip4)"><text font-family="DengXian,DengXian_MSFontService,sans-serif" font-weight="400" font-size="24" transform="translate(411.976 652)">00 00 00 00 00 00 00 00</text></g><text font-family="DengXian,DengXian_MSFontService,sans-serif" font-weight="700" font-size="32" transform="translate(242.76 655)">rsp</text><text font-family="DengXian,DengXian_MSFontService,sans-serif" font-weight="700" font-size="21" transform="translate(287.76 662)">0</text><path d="M316 642 385.944 642 385.944 646 316 646ZM383.944 638 395.944 644 383.944 650Z"/><text font-family="DengXian,DengXian_MSFontService,sans-serif" font-weight="700" font-size="32" transform="translate(190.344 542)">rsp</text><text font-family="DengXian,DengXian_MSFontService,sans-serif" font-weight="700" font-size="21" transform="translate(235.344 549)">0</text><text font-family="DengXian,DengXian_MSFontService,sans-serif" font-weight="700" font-size="32" transform="translate(247.178 542)">+24</text><text fill="#FF0000" font-family="DengXian,DengXian_MSFontService,sans-serif" font-weight="700" font-size="27" transform="translate(190.344 575)">(</text><text fill="#FF0000" font-family="DengXian,DengXian_MSFontService,sans-serif" font-weight="700" font-size="27" transform="translate(199.178 575)">返回地址</text><text fill="#FF0000" font-family="DengXian,DengXian_MSFontService,sans-serif" font-weight="700" font-size="27" transform="translate(305.844 575)">)</text><path d="M319 529 387.802 529 387.802 533 319 533ZM385.802 525 397.802 531 385.802 537Z"/><path d="M402.097 37.6586 402.097 77.3919" stroke="#000000" stroke-width="1.33333" stroke-linejoin="round" stroke-miterlimit="10" fill="none" fill-rule="evenodd"/><path d="M706.454 37.6586 706.454 77.3919" stroke="#000000" stroke-width="1.33333" stroke-linejoin="round" stroke-miterlimit="10" fill="none" fill-rule="evenodd"/><path d="M401.43 38.3252 707.12 38.3252" stroke="#000000" stroke-width="1.33333" stroke-linejoin="round" stroke-miterlimit="10" fill="none" fill-rule="evenodd"/><path d="M401.43 76.7253 707.12 76.7253" stroke="#000000" stroke-width="1.33333" stroke-linejoin="round" stroke-miterlimit="10" fill="none" fill-rule="evenodd"/><g clip-path="url(#clip5)"><text font-family="DengXian,DengXian_MSFontService,sans-serif" font-weight="700" font-size="24" transform="translate(411.697 65)">…</text></g><text font-family="DengXian,DengXian_MSFontService,sans-serif" font-weight="400" font-size="24" transform="translate(761.325 188)">test</text><text font-family="DengXian,DengXian_MSFontService,sans-serif" font-weight="400" font-size="24" transform="translate(798.825 188)">的栈帧</text><path d="M719.5 548.5C729.165 548.5 737 549.806 737 551.417L737 603.084C737 604.694 744.835 606 754.5 606 744.835 606 737 607.306 737 608.917L737 660.584C737 662.194 729.165 663.5 719.5 663.5" stroke="#000000" stroke-width="1.33333" stroke-miterlimit="8" fill="none" fill-rule="evenodd"/><text font-family="DengXian,DengXian_MSFontService,sans-serif" font-weight="400" font-size="24" transform="translate(773.078 606)">getbuf</text><text font-family="DengXian,DengXian_MSFontService,sans-serif" font-weight="400" font-size="24" transform="translate(840.911 606)">的栈帧</text><text font-family="DengXian,DengXian_MSFontService,sans-serif" font-weight="400" font-size="24" transform="translate(912.911 606)">(</text><text font-family="DengXian,DengXian_MSFontService,sans-serif" font-weight="400" font-size="24" transform="translate(919.911 606)">缓冲区</text><text font-family="DengXian,DengXian_MSFontService,sans-serif" font-weight="400" font-size="24" transform="translate(991.911 606)">)</text><text font-family="DengXian,DengXian_MSFontService,sans-serif" font-weight="400" font-size="24" transform="translate(425.054 683)">图</text><text font-family="DengXian,DengXian_MSFontService,sans-serif" font-weight="400" font-size="24" transform="translate(449.054 683)">5</text><text font-family="DengXian,DengXian_MSFontService,sans-serif" font-weight="400" font-size="24" transform="translate(461.721 683)">-</text><text font-family="DengXian,DengXian_MSFontService,sans-serif" font-weight="400" font-size="24" transform="translate(473.721 683)">对</text><text font-family="DengXian,DengXian_MSFontService,sans-serif" font-weight="400" font-size="24" transform="translate(497.721 683)">Level5</text><text font-family="DengXian,DengXian_MSFontService,sans-serif" font-weight="400" font-size="24" transform="translate(562.721 683)">攻击之后栈的情况</text><path d="M0.666667-1.90049e-07 0.66677 361.614-0.666564 361.614-0.666667 1.90049e-07ZM4.0001 360.281 0.000104987 368.281-3.9999 360.281Z" transform="matrix(1 0 0 -1 797.5 567.781)"/><text font-family="DengXian,DengXian_MSFontService,sans-serif" font-weight="400" font-size="24" transform="translate(804.482 372)">返回</text><path d="M786.212 335.621 792.718 333.571 797 347.156 801.282 333.571 807.788 335.621 800.576 358.5 807.788 381.379 801.282 383.429 797 369.844 792.718 383.429 786.212 381.379 793.424 358.5Z" stroke="#000000" stroke-width="1.33333" stroke-miterlimit="8" fill-rule="evenodd"/><path d="M402.376 397.081 402.376 436.814" stroke="#000000" stroke-width="1.33333" stroke-linejoin="round" stroke-miterlimit="10" fill="none" fill-rule="evenodd"/><path d="M706.733 397.081 706.733 436.814" stroke="#000000" stroke-width="1.33333" stroke-linejoin="round" stroke-miterlimit="10" fill="none" fill-rule="evenodd"/><path d="M401.71 397.747 707.4 397.747" stroke="#000000" stroke-width="1.33333" stroke-linejoin="round" stroke-miterlimit="10" fill="none" fill-rule="evenodd"/><path d="M401.71 436.147 707.4 436.147" stroke="#000000" stroke-width="1.33333" stroke-linejoin="round" stroke-miterlimit="10" fill="none" fill-rule="evenodd"/><g clip-path="url(#clip6)"><text font-family="DengXian,DengXian_MSFontService,sans-serif" font-weight="400" font-size="24" transform="translate(411.976 425)">0x48</text></g><text font-family="DengXian,DengXian_MSFontService,sans-serif" font-weight="700" font-size="19" transform="translate(621.281 471)">0x4018ac</text><path d="M402.283 204.515 706.64 204.515 706.64 246.697 402.283 246.697Z" fill="#FFC000" fill-rule="evenodd"/><path d="M402.283 203.849 402.283 247.364" stroke="#000000" stroke-width="1.33333" stroke-linejoin="round" stroke-miterlimit="10" fill="none" fill-rule="evenodd"/><path d="M706.64 203.849 706.64 247.364" stroke="#000000" stroke-width="1.33333" stroke-linejoin="round" stroke-miterlimit="10" fill="none" fill-rule="evenodd"/><path d="M401.617 204.515 707.307 204.515" stroke="#000000" stroke-width="1.33333" stroke-linejoin="round" stroke-miterlimit="10" fill="none" fill-rule="evenodd"/><path d="M401.617 246.697 707.307 246.697" stroke="#000000" stroke-width="1.33333" stroke-linejoin="round" stroke-miterlimit="10" fill="none" fill-rule="evenodd"/><g clip-path="url(#clip7)"><text font-family="DengXian,DengXian_MSFontService,sans-serif" font-weight="400" font-size="24" transform="translate(411.883 231)">8d 18 40 00 00 00 00 00</text></g><path d="M398.5 435.5C394.91 435.5 392 435.015 392 434.417L392 421.083C392 420.485 389.09 420 385.5 420 389.09 420 392 419.515 392 418.917L392 405.583C392 404.985 394.91 404.5 398.5 404.5" stroke="#000000" stroke-width="1.33333" stroke-miterlimit="8" fill="none" fill-rule="evenodd"/><text font-family="DengXian,DengXian_MSFontService,sans-serif" font-weight="700" font-size="21" transform="translate(251.92 424)">偏移地址</text><text font-family="DengXian,DengXian_MSFontService,sans-serif" font-weight="700" font-size="21" transform="translate(337.253 424)">bias</text><text fill="#FF0000" font-family="DengXian,DengXian_MSFontService,sans-serif" font-weight="700" font-size="19" transform="translate(621.281 243)">0x40188d</text><path d="M402.19 162.599 706.547 162.599 706.547 204.781 402.19 204.781Z" fill="#FFC000" fill-rule="evenodd"/><path d="M402.19 161.932 402.19 205.447" stroke="#000000" stroke-width="1.33333" stroke-linejoin="round" stroke-miterlimit="10" fill="none" fill-rule="evenodd"/><path d="M706.547 161.932 706.547 205.447" stroke="#000000" stroke-width="1.33333" stroke-linejoin="round" stroke-miterlimit="10" fill="none" fill-rule="evenodd"/><path d="M401.524 162.599 707.214 162.599" stroke="#000000" stroke-width="1.33333" stroke-linejoin="round" stroke-miterlimit="10" fill="none" fill-rule="evenodd"/><path d="M401.524 204.781 707.214 204.781" stroke="#000000" stroke-width="1.33333" stroke-linejoin="round" stroke-miterlimit="10" fill="none" fill-rule="evenodd"/><g clip-path="url(#clip8)"><text font-family="DengXian,DengXian_MSFontService,sans-serif" font-weight="400" font-size="24" transform="translate(411.79 189)">ef</text></g><text font-family="DengXian,DengXian_MSFontService,sans-serif" font-weight="400" font-size="24" transform="translate(437.624 189)">17 40 00 00 00 00 00</text><text fill="#FF0000" font-family="DengXian,DengXian_MSFontService,sans-serif" font-weight="700" font-size="19" transform="translate(626.142 201)">0x4017ef</text><text font-family="DengXian,DengXian_MSFontService,sans-serif" font-weight="700" font-size="24" transform="translate(258.292 191)">touch3</text><text font-family="DengXian,DengXian_MSFontService,sans-serif" font-weight="700" font-size="24" transform="translate(333.958 191)">地址</text><path d="M719.5 25.5001C729.165 25.5001 737 26.8057 737 28.4164L737 274.584C737 276.194 744.835 277.5 754.5 277.5 744.835 277.5 737 278.806 737 280.416L737 526.584C737 528.194 729.165 529.5 719.5 529.5" stroke="#000000" stroke-width="3" stroke-miterlimit="8" fill="none" fill-rule="evenodd"/><path d="M401.7 119.093 401.7 162.609" stroke="#000000" stroke-width="1.33333" stroke-linejoin="round" stroke-miterlimit="10" fill="none" fill-rule="evenodd"/><path d="M706.057 119.093 706.057 162.609" stroke="#000000" stroke-width="1.33333" stroke-linejoin="round" stroke-miterlimit="10" fill="none" fill-rule="evenodd"/><path d="M401.033 119.76 706.723 119.76" stroke="#000000" stroke-width="1.33333" stroke-linejoin="round" stroke-miterlimit="10" fill="none" fill-rule="evenodd"/><path d="M401.033 161.942 706.723 161.942" stroke="#000000" stroke-width="1.33333" stroke-linejoin="round" stroke-miterlimit="10" fill="none" fill-rule="evenodd"/><g clip-path="url(#clip9)"><text font-family="DengXian,DengXian_MSFontService,sans-serif" font-weight="400" font-size="24" transform="translate(411.3 147)">31 64 36 36 33 63 32 38</text></g><path d="M401.607 76.8098 401.607 120.325" stroke="#000000" stroke-width="1.33333" stroke-linejoin="round" stroke-miterlimit="10" fill="none" fill-rule="evenodd"/><path d="M705.963 76.8098 705.963 120.325" stroke="#000000" stroke-width="1.33333" stroke-linejoin="round" stroke-miterlimit="10" fill="none" fill-rule="evenodd"/><path d="M400.94 77.4764 706.63 77.4764" stroke="#000000" stroke-width="1.33333" stroke-linejoin="round" stroke-miterlimit="10" fill="none" fill-rule="evenodd"/><path d="M400.94 119.658 706.63 119.658" stroke="#000000" stroke-width="1.33333" stroke-linejoin="round" stroke-miterlimit="10" fill="none" fill-rule="evenodd"/><g clip-path="url(#clip10)"><text font-family="DengXian,DengXian_MSFontService,sans-serif" font-weight="400" font-size="24" transform="translate(411.207 104)">00 00 00 00 00 00 00 00</text></g><path d="M398.5 162.5C396.291 162.5 394.5 162.202 394.5 161.833L394.5 121.667C394.5 121.299 392.709 121 390.5 121 392.709 121 394.5 120.702 394.5 120.333L394.5 80.1667C394.5 79.7985 396.291 79.5001 398.5 79.5001" stroke="#000000" stroke-width="1.33333" stroke-miterlimit="8" fill="none" fill-rule="evenodd"/><text font-family="DengXian,DengXian_MSFontService,sans-serif" font-weight="400" font-size="19" transform="translate(264.836 125)">Cookie</text><text font-family="DengXian,DengXian_MSFontService,sans-serif" font-weight="400" font-size="19" transform="translate(320.336 125)">字符串</text><path d="M0.107027-1.49618 178.104 11.2366 177.89 14.229-0.107027 1.49618ZM176.822 8.13723 185.478 13.2679 176.18 17.1143Z" fill="#FF0000" transform="matrix(1 0 0 -1 707.5 194.768)"/><rect x="892.5" y="161.5" width="199" height="39" stroke="#000000" stroke-width="1.33333" stroke-miterlimit="8" fill="#FFFFFF"/><text font-family="DengXian,DengXian_MSFontService,sans-serif" font-weight="400" font-size="24" transform="translate(901.718 188)">movq %rax</text><text font-family="DengXian,DengXian_MSFontService,sans-serif" font-weight="400" font-size="24" transform="translate(1009.88 188)">，</text><text font-family="DengXian,DengXian_MSFontService,sans-serif" font-weight="400" font-size="24" transform="translate(1033.88 188)">%</text><text font-family="DengXian,DengXian_MSFontService,sans-serif" font-weight="400" font-size="24" transform="translate(1045.88 188)">rdi</text><path d="M0.105426-1.49629 178.008 11.0384 177.798 14.031-0.105426 1.49629ZM176.723 7.94041 185.384 13.0618 176.09 16.9182Z" fill="#FF0000" transform="matrix(1 0 0 -1 707.5 455.562)"/><rect x="892.5" y="423.5" width="173" height="39" stroke="#000000" stroke-width="1.33333" stroke-miterlimit="8" fill="#FFFFFF"/><text font-family="DengXian,DengXian_MSFontService,sans-serif" font-weight="400" font-size="24" transform="translate(901.718 450)">pop</text><text fill="#FF0000" font-family="DengXian,DengXian_MSFontService,sans-serif" font-weight="400" font-size="24" transform="translate(949.718 450)">%</text><text fill="#FF0000" font-family="DengXian,DengXian_MSFontService,sans-serif" font-weight="400" font-size="24" transform="translate(961.718 450)">rax #bias</text><path d="M402.283 510.157 706.64 510.157 706.64 548.557 402.283 548.557Z" fill="#FFD966" fill-rule="evenodd"/><path d="M402.283 509.491 402.283 549.224" stroke="#000000" stroke-width="1.33333" stroke-linejoin="round" stroke-miterlimit="10" fill="none" fill-rule="evenodd"/><path d="M706.64 509.491 706.64 549.224" stroke="#000000" stroke-width="1.33333" stroke-linejoin="round" stroke-miterlimit="10" fill="none" fill-rule="evenodd"/><path d="M401.617 510.157 707.307 510.157" stroke="#000000" stroke-width="1.33333" stroke-linejoin="round" stroke-miterlimit="10" fill="none" fill-rule="evenodd"/><path d="M401.617 548.557 707.307 548.557" stroke="#000000" stroke-width="1.33333" stroke-linejoin="round" stroke-miterlimit="10" fill="none" fill-rule="evenodd"/><g clip-path="url(#clip11)"><text fill="#FF0000" font-family="DengXian,DengXian_MSFontService,sans-serif" font-weight="400" font-size="24" transform="translate(411.883 537)">5</text></g><text fill="#FF0000" font-family="DengXian,DengXian_MSFontService,sans-serif" font-weight="400" font-size="24" transform="translate(424.55 537)">c 19</text><text fill="#FF0000" font-family="DengXian,DengXian_MSFontService,sans-serif" font-weight="400" font-size="24" transform="translate(473.717 537)">40 00 00 00 00 00</text><path d="M0.0568736-1.49892 178.04 5.2543 177.926 8.25214-0.0568736 1.49892ZM176.655 2.19958 185.478 7.03759 176.314 11.1931Z" fill="#FF0000" transform="matrix(1 0 0 -1 707.5 529.538)"/><rect x="892.5" y="503.5" width="200" height="39" stroke="#000000" stroke-width="1.33333" stroke-miterlimit="8" fill="#FFFFFF"/><text font-family="DengXian,DengXian_MSFontService,sans-serif" font-weight="400" font-size="24" transform="translate(901.718 530)">m</text><text font-family="DengXian,DengXian_MSFontService,sans-serif" font-weight="400" font-size="24" transform="translate(921.884 530)">ovq</text><text fill="#FF0000" font-family="DengXian,DengXian_MSFontService,sans-serif" font-weight="400" font-size="24" transform="translate(967.218 530)">%</text><text fill="#FF0000" font-family="DengXian,DengXian_MSFontService,sans-serif" font-weight="400" font-size="24" transform="translate(979.218 530)">rsp</text><text font-family="DengXian,DengXian_MSFontService,sans-serif" font-weight="400" font-size="24" transform="translate(1011.05 530)">,%</text><text font-family="DengXian,DengXian_MSFontService,sans-serif" font-weight="400" font-size="24" transform="translate(1028.38 530)">rax</text><text font-family="DengXian,DengXian_MSFontService,sans-serif" font-weight="700" font-size="19" transform="translate(622.851 545)">0x40195c</text><path d="M402.283 474.655 706.64 474.655 706.64 513.055 402.283 513.055Z" fill="#FFD966" fill-rule="evenodd"/><path d="M402.283 473.989 402.283 513.722" stroke="#000000" stroke-width="1.33333" stroke-linejoin="round" stroke-miterlimit="10" fill="none" fill-rule="evenodd"/><path d="M706.64 473.989 706.64 513.722" stroke="#000000" stroke-width="1.33333" stroke-linejoin="round" stroke-miterlimit="10" fill="none" fill-rule="evenodd"/><path d="M401.617 474.655 707.307 474.655" stroke="#000000" stroke-width="1.33333" stroke-linejoin="round" stroke-miterlimit="10" fill="none" fill-rule="evenodd"/><path d="M401.617 513.055 707.307 513.055" stroke="#000000" stroke-width="1.33333" stroke-linejoin="round" stroke-miterlimit="10" fill="none" fill-rule="evenodd"/><g clip-path="url(#clip12)"><text fill="#FF0000" font-family="DengXian,DengXian_MSFontService,sans-serif" font-weight="400" font-size="24" transform="translate(411.883 501)">8d 18</text></g><text fill="#FF0000" font-family="DengXian,DengXian_MSFontService,sans-serif" font-weight="400" font-size="24" transform="translate(476.717 501)">40 00 00 00 00 00</text><path d="M0.0568719-1.49892 178.04 5.2541 177.926 8.25194-0.0568719 1.49892ZM176.655 2.19938 185.478 7.03737 176.314 11.1929Z" fill="#FF0000" transform="matrix(1 0 0 -1 707.5 494.537)"/><rect x="892.5" y="467.5" width="200" height="39" stroke="#000000" stroke-width="1.33333" stroke-miterlimit="8" fill="#FFFFFF"/><text font-family="DengXian,DengXian_MSFontService,sans-serif" font-weight="400" font-size="24" transform="translate(901.718 494)">m</text><text font-family="DengXian,DengXian_MSFontService,sans-serif" font-weight="400" font-size="24" transform="translate(921.884 494)">ovq</text><text font-family="DengXian,DengXian_MSFontService,sans-serif" font-weight="400" font-size="24" transform="translate(967.218 494)">%</text><text font-family="DengXian,DengXian_MSFontService,sans-serif" font-weight="400" font-size="24" transform="translate(979.218 494)">rax</text><text font-family="DengXian,DengXian_MSFontService,sans-serif" font-weight="400" font-size="24" transform="translate(1009.88 494)">,%</text><text font-family="DengXian,DengXian_MSFontService,sans-serif" font-weight="400" font-size="24" transform="translate(1027.22 494)">rdi</text><text font-family="DengXian,DengXian_MSFontService,sans-serif" font-weight="700" font-size="19" transform="translate(621.281 510)">0x40188d</text><path d="M402.097 359.734 706.454 359.734 706.454 398.134 402.097 398.134Z" fill="#FFD966" fill-rule="evenodd"/><path d="M402.097 359.067 402.097 398.8" stroke="#000000" stroke-width="1.33333" stroke-linejoin="round" stroke-miterlimit="10" fill="none" fill-rule="evenodd"/><path d="M706.454 359.067 706.454 398.8" stroke="#000000" stroke-width="1.33333" stroke-linejoin="round" stroke-miterlimit="10" fill="none" fill-rule="evenodd"/><path d="M401.43 359.734 707.12 359.734" stroke="#000000" stroke-width="1.33333" stroke-linejoin="round" stroke-miterlimit="10" fill="none" fill-rule="evenodd"/><path d="M401.43 398.134 707.12 398.134" stroke="#000000" stroke-width="1.33333" stroke-linejoin="round" stroke-miterlimit="10" fill="none" fill-rule="evenodd"/><g clip-path="url(#clip13)"><text fill="#FF0000" font-family="DengXian,DengXian_MSFontService,sans-serif" font-weight="400" font-size="24" transform="translate(411.697 387)">dd 18</text></g><text fill="#FF0000" font-family="DengXian,DengXian_MSFontService,sans-serif" font-weight="400" font-size="24" transform="translate(477.697 387)">40 00 00 00 00 00</text><path d="M706.671 378.01 884.943 398.507 884.601 401.487 706.329 380.99ZM883.796 395.355 892.223 400.853 882.768 404.296Z" fill="#FF0000"/><rect x="892.5" y="352.5" width="200" height="68" stroke="#000000" stroke-width="1.33333" stroke-miterlimit="8" fill="#FFFFFF"/><text font-family="DengXian,DengXian_MSFontService,sans-serif" font-weight="400" font-size="24" transform="translate(901.777 379)">movl</text><text font-family="DengXian,DengXian_MSFontService,sans-serif" font-weight="400" font-size="24" transform="translate(958.777 379)">%</text><text font-family="DengXian,DengXian_MSFontService,sans-serif" font-weight="400" font-size="24" transform="translate(970.777 379)">eax</text><text font-family="DengXian,DengXian_MSFontService,sans-serif" font-weight="400" font-size="24" transform="translate(1005.61 379)">,%</text><text font-family="DengXian,DengXian_MSFontService,sans-serif" font-weight="400" font-size="24" transform="translate(1022.94 379)">edx</text><text font-family="DengXian,DengXian_MSFontService,sans-serif" font-weight="400" font-size="24" transform="translate(901.777 408)">orb %</text><text font-family="DengXian,DengXian_MSFontService,sans-serif" font-weight="400" font-size="24" transform="translate(956.11 408)">dl,%dl</text><text font-family="DengXian,DengXian_MSFontService,sans-serif" font-weight="700" font-size="19" transform="translate(613.362 387)">0x4018dd</text><path d="M401.818 322.749 706.174 322.749 706.174 361.149 401.818 361.149Z" fill="#FFD966" fill-rule="evenodd"/><path d="M401.818 322.083 401.818 361.816" stroke="#000000" stroke-width="1.33333" stroke-linejoin="round" stroke-miterlimit="10" fill="none" fill-rule="evenodd"/><path d="M706.174 322.083 706.174 361.816" stroke="#000000" stroke-width="1.33333" stroke-linejoin="round" stroke-miterlimit="10" fill="none" fill-rule="evenodd"/><path d="M401.151 322.749 706.841 322.749" stroke="#000000" stroke-width="1.33333" stroke-linejoin="round" stroke-miterlimit="10" fill="none" fill-rule="evenodd"/><path d="M401.151 361.149 706.841 361.149" stroke="#000000" stroke-width="1.33333" stroke-linejoin="round" stroke-miterlimit="10" fill="none" fill-rule="evenodd"/><g clip-path="url(#clip14)"><text fill="#FF0000" font-family="DengXian,DengXian_MSFontService,sans-serif" font-weight="400" font-size="24" transform="translate(411.418 350)">0c 19</text></g><text fill="#FF0000" font-family="DengXian,DengXian_MSFontService,sans-serif" font-weight="400" font-size="24" transform="translate(473.251 350)">40 00 00 00 00 00</text><path d="M0.14216-1.49325 178.679 15.5038 178.394 18.4903-0.14216 1.49325ZM177.469 12.3751 186.002 17.7078 176.616 21.3346Z" fill="#FF0000" transform="matrix(1 0 0 -1 706.5 342.208)"/><rect x="892.5" y="287.5" width="200" height="68" stroke="#000000" stroke-width="1.33333" stroke-miterlimit="8" fill="#FFFFFF"/><text font-family="DengXian,DengXian_MSFontService,sans-serif" font-weight="400" font-size="24" transform="translate(901.777 314)">movl</text><text font-family="DengXian,DengXian_MSFontService,sans-serif" font-weight="400" font-size="24" transform="translate(958.777 314)">%</text><text font-family="DengXian,DengXian_MSFontService,sans-serif" font-weight="400" font-size="24" transform="translate(970.777 314)">edx</text><text font-family="DengXian,DengXian_MSFontService,sans-serif" font-weight="400" font-size="24" transform="translate(1007.44 314)">,%</text><text font-family="DengXian,DengXian_MSFontService,sans-serif" font-weight="400" font-size="24" transform="translate(1024.78 314)">ecx</text><text font-family="DengXian,DengXian_MSFontService,sans-serif" font-weight="400" font-size="24" transform="translate(901.777 343)">andb</text><text font-family="DengXian,DengXian_MSFontService,sans-serif" font-weight="400" font-size="24" transform="translate(961.11 343)">%</text><text font-family="DengXian,DengXian_MSFontService,sans-serif" font-weight="400" font-size="24" transform="translate(973.11 343)">bl,%bl</text><text font-family="DengXian,DengXian_MSFontService,sans-serif" font-weight="700" font-size="19" transform="translate(619.077 354)">0x40190c</text><path d="M401.818 284.975 706.174 284.975 706.174 323.375 401.818 323.375Z" fill="#FFD966" fill-rule="evenodd"/><path d="M401.818 284.309 401.818 324.042" stroke="#000000" stroke-width="1.33333" stroke-linejoin="round" stroke-miterlimit="10" fill="none" fill-rule="evenodd"/><path d="M706.174 284.309 706.174 324.042" stroke="#000000" stroke-width="1.33333" stroke-linejoin="round" stroke-miterlimit="10" fill="none" fill-rule="evenodd"/><path d="M401.151 284.975 706.841 284.975" stroke="#000000" stroke-width="1.33333" stroke-linejoin="round" stroke-miterlimit="10" fill="none" fill-rule="evenodd"/><path d="M401.151 323.375 706.841 323.375" stroke="#000000" stroke-width="1.33333" stroke-linejoin="round" stroke-miterlimit="10" fill="none" fill-rule="evenodd"/><g clip-path="url(#clip15)"><text fill="#FF0000" font-family="DengXian,DengXian_MSFontService,sans-serif" font-weight="400" font-size="24" transform="translate(411.418 312)">d6 18</text></g><text fill="#FF0000" font-family="DengXian,DengXian_MSFontService,sans-serif" font-weight="400" font-size="24" transform="translate(476.251 312)">40 00 00 00 00 00</text><path d="M0.286283-1.47243 178.926 33.2605 178.354 36.2053-0.286283 1.47243ZM178.027 30.0293 186.002 36.1643 176.309 38.8639Z" fill="#FF0000" transform="matrix(1 0 0 -1 706.5 304.664)"/><rect x="892.5" y="249.5" width="200" height="38" stroke="#000000" stroke-width="1.33333" stroke-miterlimit="8" fill="#FFFFFF"/><text font-family="DengXian,DengXian_MSFontService,sans-serif" font-weight="400" font-size="24" transform="translate(901.777 275)">movl</text><text font-family="DengXian,DengXian_MSFontService,sans-serif" font-weight="400" font-size="24" transform="translate(958.777 275)">%</text><text font-family="DengXian,DengXian_MSFontService,sans-serif" font-weight="400" font-size="24" transform="translate(970.777 275)">ecx</text><text font-family="DengXian,DengXian_MSFontService,sans-serif" font-weight="400" font-size="24" transform="translate(1004.44 275)">,%</text><text font-family="DengXian,DengXian_MSFontService,sans-serif" font-weight="400" font-size="24" transform="translate(1021.78 275)">esi</text><text font-family="DengXian,DengXian_MSFontService,sans-serif" font-weight="700" font-size="19" transform="translate(619.077 316)">0x4018d6</text><path d="M401.818 246.43 706.174 246.43 706.174 284.83 401.818 284.83Z" fill="#FFD966" fill-rule="evenodd"/><path d="M401.818 245.763 401.818 285.496" stroke="#000000" stroke-width="1.33333" stroke-linejoin="round" stroke-miterlimit="10" fill="none" fill-rule="evenodd"/><path d="M706.174 245.763 706.174 285.496" stroke="#000000" stroke-width="1.33333" stroke-linejoin="round" stroke-miterlimit="10" fill="none" fill-rule="evenodd"/><path d="M401.151 246.43 706.841 246.43" stroke="#000000" stroke-width="1.33333" stroke-linejoin="round" stroke-miterlimit="10" fill="none" fill-rule="evenodd"/><path d="M401.151 284.83 706.841 284.83" stroke="#000000" stroke-width="1.33333" stroke-linejoin="round" stroke-miterlimit="10" fill="none" fill-rule="evenodd"/><g clip-path="url(#clip16)"><text fill="#FF0000" font-family="DengXian,DengXian_MSFontService,sans-serif" font-weight="400" font-size="24" transform="translate(411.418 273)">bb 18</text></g><text fill="#FF0000" font-family="DengXian,DengXian_MSFontService,sans-serif" font-weight="400" font-size="24" transform="translate(477.418 273)">40 00 00 00 00 00</text><path d="M0.32312-1.46478 180.014 38.1735 179.368 41.1031-0.32312 1.46478ZM179.195 34.9208 187.014 41.2539 177.256 43.7095Z" fill="#FF0000" transform="matrix(1 0 0 -1 706.5 265.754)"/><rect x="893.5" y="205.5" width="212" height="39" stroke="#000000" stroke-width="1.33333" stroke-miterlimit="8" fill="#FFFFFF"/><text font-family="DengXian,DengXian_MSFontService,sans-serif" font-weight="400" font-size="24" transform="translate(902.789 232)">%</text><text font-family="DengXian,DengXian_MSFontService,sans-serif" font-weight="400" font-size="24" transform="translate(914.789 232)">rax</text><text font-family="DengXian,DengXian_MSFontService,sans-serif" font-weight="400" font-size="24" transform="translate(945.455 232)">=</text><text fill="#FF0000" font-family="DengXian,DengXian_MSFontService,sans-serif" font-weight="400" font-size="24" transform="translate(961.455 232)">add(</text><text fill="#FF0000" font-family="DengXian,DengXian_MSFontService,sans-serif" font-weight="400" font-size="24" transform="translate(1008.12 232)">rs</text><text fill="#FF0000" font-family="DengXian,DengXian_MSFontService,sans-serif" font-weight="400" font-size="24" transform="translate(1026.12 232)">p</text><text fill="#FF0000" font-family="DengXian,DengXian_MSFontService,sans-serif" font-weight="400" font-size="24" transform="translate(1039.96 232)">,bia</text><text fill="#FF0000" font-family="DengXian,DengXian_MSFontService,sans-serif" font-weight="400" font-size="24" transform="translate(1076.46 232)">s</text><text fill="#FF0000" font-family="DengXian,DengXian_MSFontService,sans-serif" font-weight="400" font-size="24" transform="translate(1086.29 232)">)</text><text font-family="DengXian,DengXian_MSFontService,sans-serif" font-weight="700" font-size="19" transform="translate(619.077 278)">0x4018d6</text><text font-family="DengXian,DengXian_MSFontService,sans-serif" font-weight="700" font-size="32" transform="translate(155.888 152)">rsp</text><text font-family="DengXian,DengXian_MSFontService,sans-serif" font-weight="700" font-size="21" transform="translate(200.888 159)">1</text><text font-family="DengXian,DengXian_MSFontService,sans-serif" font-weight="700" font-size="32" transform="translate(212.721 152)">+(9*8)</text><text font-family="DengXian,DengXian_MSFontService,sans-serif" font-weight="700" font-size="21" transform="translate(305.721 159)">10</text><path d="M331 139 380.359 139 380.359 143 331 143ZM378.359 135 390.359 141 378.359 147Z"/><text font-family="DengXian,DengXian_MSFontService,sans-serif" font-weight="700" font-size="32" transform="translate(250.228 510)">rsp</text><text font-family="DengXian,DengXian_MSFontService,sans-serif" font-weight="700" font-size="21" transform="translate(295.228 517)">1</text><path d="M314 496 382.802 496 382.802 500 314 500ZM380.802 492 392.802 498 380.802 504Z"/></g></svg>