<svg width="1280" height="720" xmlns="http://www.w3.org/2000/svg" xmlns:xlink="http://www.w3.org/1999/xlink" overflow="hidden"><defs><clipPath id="clip0"><rect x="0" y="0" width="1280" height="720"/></clipPath><clipPath id="clip1"><rect x="402" y="269" width="305" height="203"/></clipPath><clipPath id="clip2"><rect x="402" y="312" width="305" height="202"/></clipPath><clipPath id="clip3"><rect x="402" y="354" width="305" height="202"/></clipPath><clipPath id="clip4"><rect x="402" y="396" width="305" height="203"/></clipPath><clipPath id="clip5"><rect x="402" y="82" width="305" height="203"/></clipPath><clipPath id="clip6"><rect x="402" y="227" width="305" height="203"/></clipPath><clipPath id="clip7"><rect x="402" y="185" width="305" height="203"/></clipPath><clipPath id="clip8"><rect x="402" y="143" width="305" height="203"/></clipPath></defs><g clip-path="url(#clip0)"><rect x="0" y="0" width="1280" height="720" fill="#FFFFFF"/><path d="M402.377 351.503 706.733 351.503 706.733 393.685 402.377 393.685Z" fill="#FFD966" fill-rule="evenodd"/><path d="M402.377 350.837 402.377 394.352" stroke="#000000" stroke-width="1.33333" stroke-linejoin="round" stroke-miterlimit="10" fill="none" fill-rule="evenodd"/><path d="M706.733 350.837 706.733 394.352" stroke="#000000" stroke-width="1.33333" stroke-linejoin="round" stroke-miterlimit="10" fill="none" fill-rule="evenodd"/><path d="M401.71 351.503 707.4 351.503" stroke="#000000" stroke-width="1.33333" stroke-linejoin="round" stroke-miterlimit="10" fill="none" fill-rule="evenodd"/><path d="M401.71 393.685 707.4 393.685" stroke="#000000" stroke-width="1.33333" stroke-linejoin="round" stroke-miterlimit="10" fill="none" fill-rule="evenodd"/><g clip-path="url(#clip1)"><text fill="#FF0000" font-family="DengXian,DengXian_MSFontService,sans-serif" font-weight="400" font-size="24" transform="translate(411.977 378)">ac 18 40 00 00 00 00 00</text></g><path d="M402.377 393.019 402.377 436.534" stroke="#000000" stroke-width="1.33333" stroke-linejoin="round" stroke-miterlimit="10" fill="none" fill-rule="evenodd"/><path d="M706.733 393.019 706.733 436.534" stroke="#000000" stroke-width="1.33333" stroke-linejoin="round" stroke-miterlimit="10" fill="none" fill-rule="evenodd"/><path d="M401.71 393.685 707.4 393.685" stroke="#000000" stroke-width="1.33333" stroke-linejoin="round" stroke-miterlimit="10" fill="none" fill-rule="evenodd"/><path d="M401.71 435.867 707.4 435.867" stroke="#000000" stroke-width="1.33333" stroke-linejoin="round" stroke-miterlimit="10" fill="none" fill-rule="evenodd"/><g clip-path="url(#clip2)"><text font-family="DengXian,DengXian_MSFontService,sans-serif" font-weight="400" font-size="24" transform="translate(411.977 420)">00 00 00 00 00 00 00 00</text></g><path d="M402.377 435.2 402.377 478.716" stroke="#000000" stroke-width="1.33333" stroke-linejoin="round" stroke-miterlimit="10" fill="none" fill-rule="evenodd"/><path d="M706.733 435.2 706.733 478.716" stroke="#000000" stroke-width="1.33333" stroke-linejoin="round" stroke-miterlimit="10" fill="none" fill-rule="evenodd"/><path d="M401.71 435.867 707.4 435.867" stroke="#000000" stroke-width="1.33333" stroke-linejoin="round" stroke-miterlimit="10" fill="none" fill-rule="evenodd"/><path d="M401.71 478.049 707.4 478.049" stroke="#000000" stroke-width="1.33333" stroke-linejoin="round" stroke-miterlimit="10" fill="none" fill-rule="evenodd"/><g clip-path="url(#clip3)"><text font-family="DengXian,DengXian_MSFontService,sans-serif" font-weight="400" font-size="24" transform="translate(411.977 463)">00 00 00 00 00 00 00 00</text></g><path d="M402.376 477.382 402.376 520.897" stroke="#000000" stroke-width="1.33333" stroke-linejoin="round" stroke-miterlimit="10" fill="none" fill-rule="evenodd"/><path d="M706.733 477.382 706.733 520.897" stroke="#000000" stroke-width="1.33333" stroke-linejoin="round" stroke-miterlimit="10" fill="none" fill-rule="evenodd"/><path d="M401.71 478.049 707.4 478.049" stroke="#000000" stroke-width="1.33333" stroke-linejoin="round" stroke-miterlimit="10" fill="none" fill-rule="evenodd"/><path d="M401.71 520.231 707.4 520.231" stroke="#000000" stroke-width="1.33333" stroke-linejoin="round" stroke-miterlimit="10" fill="none" fill-rule="evenodd"/><g clip-path="url(#clip4)"><text font-family="DengXian,DengXian_MSFontService,sans-serif" font-weight="400" font-size="24" transform="translate(411.976 505)">00 00 00 00 00 00 00 00</text></g><text font-family="DengXian,DengXian_MSFontService,sans-serif" font-weight="700" font-size="32" transform="translate(266.52 510)">rsp</text><path d="M316 497 363.333 497 363.333 501 316 501ZM361.333 493 373.333 499 361.333 505Z"/><text font-family="DengXian,DengXian_MSFontService,sans-serif" font-weight="700" font-size="32" transform="translate(47.1866 380)">rsp+24</text><text fill="#FF0000" font-family="DengXian,DengXian_MSFontService,sans-serif" font-weight="700" font-size="27" transform="translate(150.02 380)">(</text><text fill="#FF0000" font-family="DengXian,DengXian_MSFontService,sans-serif" font-weight="700" font-size="27" transform="translate(158.853 380)">返回地址</text><text fill="#FF0000" font-family="DengXian,DengXian_MSFontService,sans-serif" font-weight="700" font-size="27" transform="translate(265.52 380)">)</text><path d="M277 366 363.32 366 363.32 370 277 370ZM361.32 362 373.32 368 361.32 374Z"/><path d="M402.19 163.824 402.19 226.067" stroke="#000000" stroke-width="1.33333" stroke-linejoin="round" stroke-miterlimit="10" fill="none" fill-rule="evenodd"/><path d="M706.547 163.824 706.547 226.067" stroke="#000000" stroke-width="1.33333" stroke-linejoin="round" stroke-miterlimit="10" fill="none" fill-rule="evenodd"/><path d="M401.524 164.491 707.214 164.491" stroke="#000000" stroke-width="1.33333" stroke-linejoin="round" stroke-miterlimit="10" fill="none" fill-rule="evenodd"/><path d="M401.524 225.4 707.214 225.4" stroke="#000000" stroke-width="1.33333" stroke-linejoin="round" stroke-miterlimit="10" fill="none" fill-rule="evenodd"/><g clip-path="url(#clip5)"><text font-family="DengXian,DengXian_MSFontService,sans-serif" font-weight="700" font-size="24" transform="translate(411.79 191)">…</text></g><text font-family="DengXian,DengXian_MSFontService,sans-serif" font-weight="400" font-size="24" transform="translate(761.448 288)">test</text><text font-family="DengXian,DengXian_MSFontService,sans-serif" font-weight="400" font-size="24" transform="translate(798.948 288)">的栈帧</text><path d="M720.5 395.5C730.165 395.5 738 396.806 738 398.417L738 455.084C738 456.694 745.835 458 755.5 458 745.835 458 738 459.306 738 460.917L738 517.584C738 519.194 730.165 520.5 720.5 520.5" stroke="#000000" stroke-width="1.33333" stroke-miterlimit="8" fill="none" fill-rule="evenodd"/><text font-family="DengXian,DengXian_MSFontService,sans-serif" font-weight="400" font-size="24" transform="translate(774.019 462)">getbuf</text><text font-family="DengXian,DengXian_MSFontService,sans-serif" font-weight="400" font-size="24" transform="translate(841.852 462)">的栈帧</text><text font-family="DengXian,DengXian_MSFontService,sans-serif" font-weight="400" font-size="24" transform="translate(913.852 462)">(</text><text font-family="DengXian,DengXian_MSFontService,sans-serif" font-weight="400" font-size="24" transform="translate(920.852 462)">缓冲区</text><text font-family="DengXian,DengXian_MSFontService,sans-serif" font-weight="400" font-size="24" transform="translate(992.852 462)">)</text><text font-family="DengXian,DengXian_MSFontService,sans-serif" font-weight="400" font-size="24" transform="translate(411.79 593)">图</text><text font-family="DengXian,DengXian_MSFontService,sans-serif" font-weight="400" font-size="24" transform="translate(435.79 593)">4</text><text font-family="DengXian,DengXian_MSFontService,sans-serif" font-weight="400" font-size="24" transform="translate(448.457 593)">-</text><text font-family="DengXian,DengXian_MSFontService,sans-serif" font-weight="400" font-size="24" transform="translate(460.457 593)">对</text><text font-family="DengXian,DengXian_MSFontService,sans-serif" font-weight="400" font-size="24" transform="translate(484.457 593)">Level4</text><text font-family="DengXian,DengXian_MSFontService,sans-serif" font-weight="400" font-size="24" transform="translate(549.457 593)">攻击之后栈的情况</text><path d="M0.666667-4.5865e-07 0.666767 145.936-0.666566 145.936-0.666667 4.5865e-07ZM4.0001 144.603 0.000104987 152.603-3.9999 144.603Z" transform="matrix(1 0 0 -1 883.5 451.103)"/><text font-family="DengXian,DengXian_MSFontService,sans-serif" font-weight="400" font-size="24" transform="translate(812.484 397)">返回</text><path d="M787.216 369.391 793.714 367.32 798 380.768 802.286 367.32 808.784 369.391 801.579 392 808.784 414.609 802.286 416.68 798 403.232 793.714 416.68 787.216 414.609 794.421 392Z" stroke="#000000" stroke-width="1.33333" stroke-miterlimit="8" fill-rule="evenodd"/><path d="M402.376 308.678 402.376 352.193" stroke="#000000" stroke-width="1.33333" stroke-linejoin="round" stroke-miterlimit="10" fill="none" fill-rule="evenodd"/><path d="M706.733 308.678 706.733 352.193" stroke="#000000" stroke-width="1.33333" stroke-linejoin="round" stroke-miterlimit="10" fill="none" fill-rule="evenodd"/><path d="M401.71 309.345 707.4 309.345" stroke="#000000" stroke-width="1.33333" stroke-linejoin="round" stroke-miterlimit="10" fill="none" fill-rule="evenodd"/><path d="M401.71 351.527 707.4 351.527" stroke="#000000" stroke-width="1.33333" stroke-linejoin="round" stroke-miterlimit="10" fill="none" fill-rule="evenodd"/><g clip-path="url(#clip6)"><text font-family="DengXian,DengXian_MSFontService,sans-serif" font-weight="400" font-size="24" transform="translate(411.976 336)">28 3c 66 1d 00 00 00 00</text></g><text font-family="DengXian,DengXian_MSFontService,sans-serif" font-weight="700" font-size="19" transform="translate(606.934 392)">0x4018ac</text><path d="M402.283 267.061 706.64 267.061 706.64 309.243 402.283 309.243Z" fill="#FFC000" fill-rule="evenodd"/><path d="M402.283 266.395 402.283 309.91" stroke="#000000" stroke-width="1.33333" stroke-linejoin="round" stroke-miterlimit="10" fill="none" fill-rule="evenodd"/><path d="M706.64 266.395 706.64 309.91" stroke="#000000" stroke-width="1.33333" stroke-linejoin="round" stroke-miterlimit="10" fill="none" fill-rule="evenodd"/><path d="M401.617 267.061 707.307 267.061" stroke="#000000" stroke-width="1.33333" stroke-linejoin="round" stroke-miterlimit="10" fill="none" fill-rule="evenodd"/><path d="M401.617 309.243 707.307 309.243" stroke="#000000" stroke-width="1.33333" stroke-linejoin="round" stroke-miterlimit="10" fill="none" fill-rule="evenodd"/><g clip-path="url(#clip7)"><text font-family="DengXian,DengXian_MSFontService,sans-serif" font-weight="400" font-size="24" transform="translate(411.883 294)">8d 18 40 00 00 00 00 00</text></g><path d="M396.5 352.5C392.358 352.5 389 351.94 389 351.25L389 332.25C389 331.56 385.642 331 381.5 331 385.642 331 389 330.44 389 329.75L389 310.75C389 310.06 392.358 309.5 396.5 309.5" stroke="#000000" stroke-width="1.33333" stroke-miterlimit="8" fill="none" fill-rule="evenodd"/><text font-family="DengXian,DengXian_MSFontService,sans-serif" font-weight="700" font-size="21" transform="translate(299.085 341)">Cookie</text><text fill="#FF0000" font-family="DengXian,DengXian_MSFontService,sans-serif" font-weight="700" font-size="19" transform="translate(601.677 347)">0x1d663c28</text><text fill="#FF0000" font-family="DengXian,DengXian_MSFontService,sans-serif" font-weight="700" font-size="19" transform="translate(611.295 305)">0x40188d</text><path d="M402.19 225.145 706.547 225.145 706.547 267.326 402.19 267.326Z" fill="#FFC000" fill-rule="evenodd"/><path d="M402.19 224.478 402.19 267.993" stroke="#000000" stroke-width="1.33333" stroke-linejoin="round" stroke-miterlimit="10" fill="none" fill-rule="evenodd"/><path d="M706.547 224.478 706.547 267.993" stroke="#000000" stroke-width="1.33333" stroke-linejoin="round" stroke-miterlimit="10" fill="none" fill-rule="evenodd"/><path d="M401.524 225.145 707.214 225.145" stroke="#000000" stroke-width="1.33333" stroke-linejoin="round" stroke-miterlimit="10" fill="none" fill-rule="evenodd"/><path d="M401.524 267.326 707.214 267.326" stroke="#000000" stroke-width="1.33333" stroke-linejoin="round" stroke-miterlimit="10" fill="none" fill-rule="evenodd"/><g clip-path="url(#clip8)"><text font-family="DengXian,DengXian_MSFontService,sans-serif" font-weight="400" font-size="24" transform="translate(411.79 252)">1b 17 40 00 00 00 00 00</text></g><text fill="#FF0000" font-family="DengXian,DengXian_MSFontService,sans-serif" font-weight="700" font-size="19" transform="translate(616.845 257)">0x40171b</text><text font-family="DengXian,DengXian_MSFontService,sans-serif" font-weight="700" font-size="24" transform="translate(258.292 254)">touch2</text><text font-family="DengXian,DengXian_MSFontService,sans-serif" font-weight="700" font-size="24" transform="translate(333.958 254)">地址</text><path d="M712.592 363.003 973.752 379.034 973.568 382.029 712.408 365.997ZM972.438 375.948 981.146 380.991 971.887 384.931Z" fill="#FF0000"/><rect x="981.5" y="346.5" width="173" height="68" stroke="#000000" stroke-width="1.33333" stroke-miterlimit="8" fill="#FFFFFF"/><text font-family="DengXian,DengXian_MSFontService,sans-serif" font-weight="400" font-size="24" transform="translate(990.288 373)">pop %rax</text><text font-family="DengXian,DengXian_MSFontService,sans-serif" font-weight="400" font-size="24" transform="translate(990.288 402)">ret</text><path d="M980.57 381.831 715.114 303.839 715.678 301.92 981.133 379.912ZM715.548 307.093 709 301 717.803 299.417Z" fill="#4472C4"/><path d="M712.511 296 972.936 297.896 972.914 300.896 712.489 299ZM971.458 294.885 980.425 299.45 971.392 303.885Z" fill="#FF0000"/><rect x="980.5" y="278.5" width="174" height="68" stroke="#000000" stroke-width="1.33333" stroke-miterlimit="8" fill="#FFFFFF"/><text font-family="DengXian,DengXian_MSFontService,sans-serif" font-weight="400" font-size="24" transform="translate(989.96 305)">movq %rax</text><text font-family="DengXian,DengXian_MSFontService,sans-serif" font-weight="400" font-size="24" transform="translate(1104.63 305)">rdi</text><text font-family="DengXian,DengXian_MSFontService,sans-serif" font-weight="400" font-size="24" transform="translate(989.96 334)">ret</text><path d="M708.511 226 968.936 227.896 968.914 230.896 708.489 229ZM967.458 224.885 976.425 229.45 967.392 233.885Z" fill="#FF0000"/><rect x="981.5" y="210.5" width="173" height="39" stroke="#000000" stroke-width="1.33333" stroke-miterlimit="8" fill="#FFFFFF"/><text font-family="DengXian,DengXian_MSFontService,sans-serif" font-weight="400" font-size="24" transform="translate(990.288 237)">touch2</text><path d="M720.5 164.5C730.165 164.5 738 165.806 738 167.417L738 276.083C738 277.694 745.835 279 755.5 279 745.835 279 738 280.306 738 281.917L738 390.583C738 392.194 730.165 393.5 720.5 393.5" stroke="#000000" stroke-width="3" stroke-miterlimit="8" fill="none" fill-rule="evenodd"/><path d="M980.078 279.279 714.434 238.012 714.742 236.035 980.385 277.303ZM715.291 241.181 708 236 716.519 233.275Z" fill="#4472C4"/></g></svg>