<svg width="1280" height="720" xmlns="http://www.w3.org/2000/svg" xmlns:xlink="http://www.w3.org/1999/xlink" overflow="hidden"><defs><clipPath id="clip0"><rect x="0" y="0" width="1280" height="720"/></clipPath><clipPath id="clip1"><rect x="542" y="138" width="164" height="202"/></clipPath><clipPath id="clip2"><rect x="542" y="180" width="164" height="203"/></clipPath><clipPath id="clip3"><rect x="542" y="222" width="164" height="203"/></clipPath><clipPath id="clip4"><rect x="542" y="264" width="164" height="203"/></clipPath><clipPath id="clip5"><rect x="542" y="77" width="164" height="203"/></clipPath></defs><g clip-path="url(#clip0)"><rect x="0" y="0" width="1280" height="720" fill="#FFFFFF"/><path d="M542.031 219.948 705.844 219.948 705.844 262.13 542.031 262.13Z" fill="#FFD966" fill-rule="evenodd"/><path d="M542.031 219.281 542.031 262.796" stroke="#000000" stroke-width="1.33333" stroke-linejoin="round" stroke-miterlimit="10" fill="none" fill-rule="evenodd"/><path d="M705.844 219.281 705.844 262.796" stroke="#000000" stroke-width="1.33333" stroke-linejoin="round" stroke-miterlimit="10" fill="none" fill-rule="evenodd"/><path d="M541.364 219.948 706.511 219.948" stroke="#000000" stroke-width="1.33333" stroke-linejoin="round" stroke-miterlimit="10" fill="none" fill-rule="evenodd"/><path d="M541.364 262.13 706.511 262.13" stroke="#000000" stroke-width="1.33333" stroke-linejoin="round" stroke-miterlimit="10" fill="none" fill-rule="evenodd"/><g clip-path="url(#clip1)"><text fill="#FF0000" font-family="DengXian,DengXian_MSFontService,sans-serif" font-weight="400" font-size="24" transform="translate(551.631 247)">ef</text></g><text fill="#FF0000" font-family="DengXian,DengXian_MSFontService,sans-serif" font-weight="400" font-size="24" transform="translate(577.464 247)">16 40 00</text><path d="M542.031 261.463 542.031 304.978" stroke="#000000" stroke-width="1.33333" stroke-linejoin="round" stroke-miterlimit="10" fill="none" fill-rule="evenodd"/><path d="M705.844 261.463 705.844 304.978" stroke="#000000" stroke-width="1.33333" stroke-linejoin="round" stroke-miterlimit="10" fill="none" fill-rule="evenodd"/><path d="M541.364 262.13 706.511 262.13" stroke="#000000" stroke-width="1.33333" stroke-linejoin="round" stroke-miterlimit="10" fill="none" fill-rule="evenodd"/><path d="M541.364 304.312 706.511 304.312" stroke="#000000" stroke-width="1.33333" stroke-linejoin="round" stroke-miterlimit="10" fill="none" fill-rule="evenodd"/><g clip-path="url(#clip2)"><text font-family="DengXian,DengXian_MSFontService,sans-serif" font-weight="400" font-size="24" transform="translate(551.631 289)">00 00 00 00</text></g><path d="M542.031 303.645 542.031 347.16" stroke="#000000" stroke-width="1.33333" stroke-linejoin="round" stroke-miterlimit="10" fill="none" fill-rule="evenodd"/><path d="M705.844 303.645 705.844 347.16" stroke="#000000" stroke-width="1.33333" stroke-linejoin="round" stroke-miterlimit="10" fill="none" fill-rule="evenodd"/><path d="M541.364 304.312 706.511 304.312" stroke="#000000" stroke-width="1.33333" stroke-linejoin="round" stroke-miterlimit="10" fill="none" fill-rule="evenodd"/><path d="M541.364 346.493 706.511 346.493" stroke="#000000" stroke-width="1.33333" stroke-linejoin="round" stroke-miterlimit="10" fill="none" fill-rule="evenodd"/><g clip-path="url(#clip3)"><text font-family="DengXian,DengXian_MSFontService,sans-serif" font-weight="400" font-size="24" transform="translate(551.631 331)">00 00 00 00</text></g><path d="M542.031 345.827 542.031 389.342" stroke="#000000" stroke-width="1.33333" stroke-linejoin="round" stroke-miterlimit="10" fill="none" fill-rule="evenodd"/><path d="M705.844 345.827 705.844 389.342" stroke="#000000" stroke-width="1.33333" stroke-linejoin="round" stroke-miterlimit="10" fill="none" fill-rule="evenodd"/><path d="M541.364 346.493 706.511 346.493" stroke="#000000" stroke-width="1.33333" stroke-linejoin="round" stroke-miterlimit="10" fill="none" fill-rule="evenodd"/><path d="M541.364 388.675 706.511 388.675" stroke="#000000" stroke-width="1.33333" stroke-linejoin="round" stroke-miterlimit="10" fill="none" fill-rule="evenodd"/><g clip-path="url(#clip4)"><text font-family="DengXian,DengXian_MSFontService,sans-serif" font-weight="400" font-size="24" transform="translate(551.631 373)">00 00 00 00</text></g><text font-family="DengXian,DengXian_MSFontService,sans-serif" font-weight="700" font-size="32" transform="translate(425.631 378)">rsp</text><path d="M475 366 522.333 366 522.333 370 475 370ZM520.333 362 532.333 368 520.333 374Z"/><text font-family="DengXian,DengXian_MSFontService,sans-serif" font-weight="700" font-size="32" transform="translate(346.298 336)">rsp+8</text><path d="M436 324 522.32 324 522.32 328 436 328ZM520.32 320 532.32 326 520.32 332Z"/><text font-family="DengXian,DengXian_MSFontService,sans-serif" font-weight="700" font-size="32" transform="translate(326.964 294)">rsp+16</text><path d="M436 282 522.32 282 522.32 286 436 286ZM520.32 278 532.32 284 520.32 290Z"/><text font-family="DengXian,DengXian_MSFontService,sans-serif" font-weight="700" font-size="32" transform="translate(206.298 248)">rsp+24</text><text fill="#FF0000" font-family="DengXian,DengXian_MSFontService,sans-serif" font-weight="700" font-size="27" transform="translate(309.131 248)">(</text><text fill="#FF0000" font-family="DengXian,DengXian_MSFontService,sans-serif" font-weight="700" font-size="27" transform="translate(317.964 248)">返回地址</text><text fill="#FF0000" font-family="DengXian,DengXian_MSFontService,sans-serif" font-weight="700" font-size="27" transform="translate(424.631 248)">)</text><path d="M436 235 522.32 235 522.32 239 436 239ZM520.32 231 532.32 237 520.32 243Z"/><path d="M542.031 158.372 542.031 220.615" stroke="#000000" stroke-width="1.33333" stroke-linejoin="round" stroke-miterlimit="10" fill="none" fill-rule="evenodd"/><path d="M705.844 158.372 705.844 220.615" stroke="#000000" stroke-width="1.33333" stroke-linejoin="round" stroke-miterlimit="10" fill="none" fill-rule="evenodd"/><path d="M541.364 159.039 706.511 159.039" stroke="#000000" stroke-width="1.33333" stroke-linejoin="round" stroke-miterlimit="10" fill="none" fill-rule="evenodd"/><path d="M541.364 219.948 706.511 219.948" stroke="#000000" stroke-width="1.33333" stroke-linejoin="round" stroke-miterlimit="10" fill="none" fill-rule="evenodd"/><g clip-path="url(#clip5)"><text font-family="DengXian,DengXian_MSFontService,sans-serif" font-weight="700" font-size="24" transform="translate(551.631 186)">…</text></g><path d="M805.5 159.5C815.165 159.5 823 160.806 823 162.417L823 208.084C823 209.694 830.835 211 840.5 211 830.835 211 823 212.306 823 213.917L823 259.583C823 261.194 815.165 262.5 805.5 262.5" stroke="#000000" stroke-width="1.33333" stroke-miterlimit="8" fill="none" fill-rule="evenodd"/><text font-family="DengXian,DengXian_MSFontService,sans-serif" font-weight="400" font-size="24" transform="translate(858.777 226)">test</text><text font-family="DengXian,DengXian_MSFontService,sans-serif" font-weight="400" font-size="24" transform="translate(896.277 226)">的栈帧</text><path d="M805.5 263.5C815.165 263.5 823 264.806 823 266.417L823 323.084C823 324.694 830.835 326 840.5 326 830.835 326 823 327.306 823 328.917L823 385.584C823 387.194 815.165 388.5 805.5 388.5" stroke="#000000" stroke-width="1.33333" stroke-miterlimit="8" fill="none" fill-rule="evenodd"/><text font-family="DengXian,DengXian_MSFontService,sans-serif" font-weight="400" font-size="24" transform="translate(858.777 331)">getbuf</text><text font-family="DengXian,DengXian_MSFontService,sans-serif" font-weight="400" font-size="24" transform="translate(926.611 331)">的栈帧</text><text font-family="DengXian,DengXian_MSFontService,sans-serif" font-weight="400" font-size="24" transform="translate(998.611 331)">(</text><text font-family="DengXian,DengXian_MSFontService,sans-serif" font-weight="400" font-size="24" transform="translate(1005.61 331)">缓冲区</text><text font-family="DengXian,DengXian_MSFontService,sans-serif" font-weight="400" font-size="24" transform="translate(1077.61 331)">)</text><text font-family="DengXian,DengXian_MSFontService,sans-serif" font-weight="400" font-size="24" transform="translate(465.644 434)">图</text><text font-family="DengXian,DengXian_MSFontService,sans-serif" font-weight="400" font-size="24" transform="translate(489.644 434)">1</text><text font-family="DengXian,DengXian_MSFontService,sans-serif" font-weight="400" font-size="24" transform="translate(502.311 434)">-</text><text font-family="DengXian,DengXian_MSFontService,sans-serif" font-weight="400" font-size="24" transform="translate(514.311 434)">对</text><text font-family="DengXian,DengXian_MSFontService,sans-serif" font-weight="400" font-size="24" transform="translate(538.311 434)">Level1</text><text font-family="DengXian,DengXian_MSFontService,sans-serif" font-weight="400" font-size="24" transform="translate(603.311 434)">攻击之后栈的情况</text><text font-family="DengXian,DengXian_MSFontService,sans-serif" font-weight="400" font-size="19" transform="translate(714.297 375)">0x55679928</text><text font-family="DengXian,DengXian_MSFontService,sans-serif" font-weight="400" font-size="19" transform="translate(714.297 331)">0x55679930</text><text font-family="DengXian,DengXian_MSFontService,sans-serif" font-weight="400" font-size="19" transform="translate(717.818 289)">0x55679938</text><text font-family="DengXian,DengXian_MSFontService,sans-serif" font-weight="400" font-size="19" transform="translate(715.444 246)">0x55679940</text><path d="M0.666667-7.97057e-07 0.666764 81.1454-0.66657 81.1454-0.666667 7.97057e-07ZM4.0001 79.8121 0.000104987 87.8121-3.9999 79.8121Z" transform="matrix(1 0 0 -1 882.5 319.312)"/><text font-family="DengXian,DengXian_MSFontService,sans-serif" font-weight="400" font-size="24" transform="translate(896.22 278)">返回</text><path d="M871.216 244.391 877.714 242.32 882 255.768 886.286 242.32 892.784 244.391 885.579 267 892.784 289.609 886.286 291.68 882 278.232 877.714 291.68 871.216 289.609 878.421 267Z" stroke="#000000" stroke-width="1.33333" stroke-miterlimit="8" fill-rule="evenodd"/><path d="M0.00602948-0.666639 83.9145 0.0922782 83.9025 1.42556-0.00602948 0.666639ZM82.6114-3.25298 90.5749 0.819213 82.5391 4.7467Z" fill="#FF0000" transform="matrix(1 0 0 -1 953.5 272.319)"/><text fill="#FF0000" font-family="DengXian,DengXian_MSFontService,sans-serif" font-weight="400" font-size="24" transform="translate(1051.44 276)">touch1</text><text font-family="DengXian,DengXian_MSFontService,sans-serif" font-weight="400" font-size="19" transform="translate(630.677 259)">0x4016ef</text><path d="M542.5 144.167 698.5 144.167 698.5 144.833 542.5 144.833ZM697.167 140.5 705.167 144.5 697.167 148.5Z" fill="#4472C4"/><text font-family="DengXian,DengXian_MSFontService,sans-serif" font-weight="400" font-size="19" transform="translate(542.298 139)">L</text><text font-family="DengXian,DengXian_MSFontService,sans-serif" font-weight="400" font-size="19" transform="translate(688.944 135)">H</text></g></svg>