<svg width="1280" height="720" xmlns="http://www.w3.org/2000/svg" xmlns:xlink="http://www.w3.org/1999/xlink" overflow="hidden"><defs><clipPath id="clip0"><rect x="0" y="0" width="1280" height="720"/></clipPath><clipPath id="clip1"><rect x="402" y="269" width="305" height="203"/></clipPath><clipPath id="clip2"><rect x="402" y="312" width="305" height="202"/></clipPath><clipPath id="clip3"><rect x="402" y="354" width="305" height="202"/></clipPath><clipPath id="clip4"><rect x="402" y="396" width="305" height="203"/></clipPath><clipPath id="clip5"><rect x="402" y="125" width="305" height="203"/></clipPath><clipPath id="clip6"><rect x="402" y="227" width="305" height="203"/></clipPath><clipPath id="clip7"><rect x="402" y="185" width="305" height="203"/></clipPath></defs><g clip-path="url(#clip0)"><rect x="0" y="0" width="1280" height="720" fill="#FFFFFF"/><path d="M402.377 351.503 706.733 351.503 706.733 393.685 402.377 393.685Z" fill="#FFD966" fill-rule="evenodd"/><path d="M402.377 350.837 402.377 394.352" stroke="#000000" stroke-width="1.33333" stroke-linejoin="round" stroke-miterlimit="10" fill="none" fill-rule="evenodd"/><path d="M706.733 350.837 706.733 394.352" stroke="#000000" stroke-width="1.33333" stroke-linejoin="round" stroke-miterlimit="10" fill="none" fill-rule="evenodd"/><path d="M401.71 351.503 707.4 351.503" stroke="#000000" stroke-width="1.33333" stroke-linejoin="round" stroke-miterlimit="10" fill="none" fill-rule="evenodd"/><path d="M401.71 393.685 707.4 393.685" stroke="#000000" stroke-width="1.33333" stroke-linejoin="round" stroke-miterlimit="10" fill="none" fill-rule="evenodd"/><g clip-path="url(#clip1)"><text fill="#FF0000" font-family="DengXian,DengXian_MSFontService,sans-serif" font-weight="400" font-size="24" transform="translate(411.977 378)">28 99 67 55 00 00 00 00</text></g><path d="M402.377 393.019 402.377 436.534" stroke="#000000" stroke-width="1.33333" stroke-linejoin="round" stroke-miterlimit="10" fill="none" fill-rule="evenodd"/><path d="M706.733 393.019 706.733 436.534" stroke="#000000" stroke-width="1.33333" stroke-linejoin="round" stroke-miterlimit="10" fill="none" fill-rule="evenodd"/><path d="M401.71 393.685 707.4 393.685" stroke="#000000" stroke-width="1.33333" stroke-linejoin="round" stroke-miterlimit="10" fill="none" fill-rule="evenodd"/><path d="M401.71 435.867 707.4 435.867" stroke="#000000" stroke-width="1.33333" stroke-linejoin="round" stroke-miterlimit="10" fill="none" fill-rule="evenodd"/><g clip-path="url(#clip2)"><text font-family="DengXian,DengXian_MSFontService,sans-serif" font-weight="400" font-size="24" transform="translate(411.977 420)">00 00 00 00 00 00 00 00</text></g><path d="M402.377 435.2 402.377 478.716" stroke="#000000" stroke-width="1.33333" stroke-linejoin="round" stroke-miterlimit="10" fill="none" fill-rule="evenodd"/><path d="M706.733 435.2 706.733 478.716" stroke="#000000" stroke-width="1.33333" stroke-linejoin="round" stroke-miterlimit="10" fill="none" fill-rule="evenodd"/><path d="M401.71 435.867 707.4 435.867" stroke="#000000" stroke-width="1.33333" stroke-linejoin="round" stroke-miterlimit="10" fill="none" fill-rule="evenodd"/><path d="M401.71 478.049 707.4 478.049" stroke="#000000" stroke-width="1.33333" stroke-linejoin="round" stroke-miterlimit="10" fill="none" fill-rule="evenodd"/><g clip-path="url(#clip3)"><text font-family="DengXian,DengXian_MSFontService,sans-serif" font-weight="400" font-size="24" transform="translate(411.977 463)">ef</text></g><text font-family="DengXian,DengXian_MSFontService,sans-serif" font-weight="400" font-size="24" transform="translate(437.81 463)">17 40 00 c3 00 00 00</text><path d="M402.376 477.382 402.376 520.897" stroke="#000000" stroke-width="1.33333" stroke-linejoin="round" stroke-miterlimit="10" fill="none" fill-rule="evenodd"/><path d="M706.733 477.382 706.733 520.897" stroke="#000000" stroke-width="1.33333" stroke-linejoin="round" stroke-miterlimit="10" fill="none" fill-rule="evenodd"/><path d="M401.71 478.049 707.4 478.049" stroke="#000000" stroke-width="1.33333" stroke-linejoin="round" stroke-miterlimit="10" fill="none" fill-rule="evenodd"/><path d="M401.71 520.231 707.4 520.231" stroke="#000000" stroke-width="1.33333" stroke-linejoin="round" stroke-miterlimit="10" fill="none" fill-rule="evenodd"/><g clip-path="url(#clip4)"><text font-family="DengXian,DengXian_MSFontService,sans-serif" font-weight="400" font-size="24" transform="translate(411.976 505)">48 c7</text></g><text font-family="DengXian,DengXian_MSFontService,sans-serif" font-weight="400" font-size="24" transform="translate(473.81 505)">c7</text><text font-family="DengXian,DengXian_MSFontService,sans-serif" font-weight="400" font-size="24" transform="translate(503.81 505)">48 99 67 55 68</text><text font-family="DengXian,DengXian_MSFontService,sans-serif" font-weight="700" font-size="32" transform="translate(266.52 510)">rsp</text><path d="M316 497 363.333 497 363.333 501 316 501ZM361.333 493 373.333 499 361.333 505Z"/><text font-family="DengXian,DengXian_MSFontService,sans-serif" font-weight="700" font-size="32" transform="translate(187.187 468)">rsp+8</text><path d="M277 456 363.32 456 363.32 460 277 460ZM361.32 452 373.32 458 361.32 464Z"/><text font-family="DengXian,DengXian_MSFontService,sans-serif" font-weight="700" font-size="32" transform="translate(167.853 425)">rsp+16</text><path d="M277 414 363.32 414 363.32 418 277 418ZM361.32 410 373.32 416 361.32 422Z"/><text font-family="DengXian,DengXian_MSFontService,sans-serif" font-weight="700" font-size="32" transform="translate(47.1866 380)">rsp+24</text><text fill="#FF0000" font-family="DengXian,DengXian_MSFontService,sans-serif" font-weight="700" font-size="27" transform="translate(150.02 380)">(</text><text fill="#FF0000" font-family="DengXian,DengXian_MSFontService,sans-serif" font-weight="700" font-size="27" transform="translate(158.853 380)">返回地址</text><text fill="#FF0000" font-family="DengXian,DengXian_MSFontService,sans-serif" font-weight="700" font-size="27" transform="translate(265.52 380)">)</text><path d="M277 366 363.32 366 363.32 370 277 370ZM361.32 362 373.32 368 361.32 374Z"/><path d="M402.19 206.619 402.19 268.861" stroke="#000000" stroke-width="1.33333" stroke-linejoin="round" stroke-miterlimit="10" fill="none" fill-rule="evenodd"/><path d="M706.547 206.619 706.547 268.861" stroke="#000000" stroke-width="1.33333" stroke-linejoin="round" stroke-miterlimit="10" fill="none" fill-rule="evenodd"/><path d="M401.524 207.286 707.214 207.286" stroke="#000000" stroke-width="1.33333" stroke-linejoin="round" stroke-miterlimit="10" fill="none" fill-rule="evenodd"/><path d="M401.524 268.195 707.214 268.195" stroke="#000000" stroke-width="1.33333" stroke-linejoin="round" stroke-miterlimit="10" fill="none" fill-rule="evenodd"/><g clip-path="url(#clip5)"><text font-family="DengXian,DengXian_MSFontService,sans-serif" font-weight="700" font-size="24" transform="translate(411.79 234)">…</text></g><path d="M806.5 207.5C816.165 207.5 824 208.806 824 210.417L824 297.584C824 299.194 831.835 300.5 841.5 300.5 831.835 300.5 824 301.806 824 303.417L824 390.584C824 392.194 816.165 393.5 806.5 393.5" stroke="#000000" stroke-width="1.33333" stroke-miterlimit="8" fill="none" fill-rule="evenodd"/><text font-family="DengXian,DengXian_MSFontService,sans-serif" font-weight="400" font-size="24" transform="translate(859.666 286)">test</text><text font-family="DengXian,DengXian_MSFontService,sans-serif" font-weight="400" font-size="24" transform="translate(897.166 286)">的栈帧</text><path d="M806.5 395.5C816.165 395.5 824 396.806 824 398.417L824 455.084C824 456.694 831.835 458 841.5 458 831.835 458 824 459.306 824 460.917L824 517.584C824 519.194 816.165 520.5 806.5 520.5" stroke="#000000" stroke-width="1.33333" stroke-miterlimit="8" fill="none" fill-rule="evenodd"/><text font-family="DengXian,DengXian_MSFontService,sans-serif" font-weight="400" font-size="24" transform="translate(859.666 462)">getbuf</text><text font-family="DengXian,DengXian_MSFontService,sans-serif" font-weight="400" font-size="24" transform="translate(927.5 462)">的栈帧</text><text font-family="DengXian,DengXian_MSFontService,sans-serif" font-weight="400" font-size="24" transform="translate(999.5 462)">(</text><text font-family="DengXian,DengXian_MSFontService,sans-serif" font-weight="400" font-size="24" transform="translate(1006.5 462)">缓冲区</text><text font-family="DengXian,DengXian_MSFontService,sans-serif" font-weight="400" font-size="24" transform="translate(1078.5 462)">)</text><text font-family="DengXian,DengXian_MSFontService,sans-serif" font-weight="400" font-size="24" transform="translate(484.964 645)">图</text><text font-family="DengXian,DengXian_MSFontService,sans-serif" font-weight="400" font-size="24" transform="translate(508.964 645)">3</text><text font-family="DengXian,DengXian_MSFontService,sans-serif" font-weight="400" font-size="24" transform="translate(521.631 645)">-</text><text font-family="DengXian,DengXian_MSFontService,sans-serif" font-weight="400" font-size="24" transform="translate(533.631 645)">对</text><text font-family="DengXian,DengXian_MSFontService,sans-serif" font-weight="400" font-size="24" transform="translate(557.631 645)">Level3</text><text font-family="DengXian,DengXian_MSFontService,sans-serif" font-weight="400" font-size="24" transform="translate(622.631 645)">攻击之后栈的情况</text><text font-family="DengXian,DengXian_MSFontService,sans-serif" font-weight="400" font-size="19" transform="translate(715.186 506)">0x55679928</text><text font-family="DengXian,DengXian_MSFontService,sans-serif" font-weight="400" font-size="19" transform="translate(715.186 463)">0x55679930</text><text font-family="DengXian,DengXian_MSFontService,sans-serif" font-weight="400" font-size="19" transform="translate(718.707 420)">0x55679938</text><text font-family="DengXian,DengXian_MSFontService,sans-serif" font-weight="400" font-size="19" transform="translate(716.333 378)">0x55679940</text><path d="M0.666667-4.5865e-07 0.666767 145.936-0.666566 145.936-0.666667 4.5865e-07ZM4.0001 144.603 0.000104987 152.603-3.9999 144.603Z" transform="matrix(1 0 0 -1 883.5 451.103)"/><text font-family="DengXian,DengXian_MSFontService,sans-serif" font-weight="400" font-size="24" transform="translate(898.506 372)">返回</text><path d="M874.212 337.621 880.718 335.571 885 349.156 889.282 335.571 895.788 337.621 888.576 360.5 895.788 383.379 889.282 385.429 885 371.844 880.718 385.429 874.212 383.379 881.424 360.5Z" stroke="#000000" stroke-width="1.33333" stroke-miterlimit="8" fill-rule="evenodd"/><path d="M402.376 308.678 402.376 352.193" stroke="#000000" stroke-width="1.33333" stroke-linejoin="round" stroke-miterlimit="10" fill="none" fill-rule="evenodd"/><path d="M706.733 308.678 706.733 352.193" stroke="#000000" stroke-width="1.33333" stroke-linejoin="round" stroke-miterlimit="10" fill="none" fill-rule="evenodd"/><path d="M401.71 309.345 707.4 309.345" stroke="#000000" stroke-width="1.33333" stroke-linejoin="round" stroke-miterlimit="10" fill="none" fill-rule="evenodd"/><path d="M401.71 351.527 707.4 351.527" stroke="#000000" stroke-width="1.33333" stroke-linejoin="round" stroke-miterlimit="10" fill="none" fill-rule="evenodd"/><g clip-path="url(#clip6)"><text font-family="DengXian,DengXian_MSFontService,sans-serif" font-weight="400" font-size="24" transform="translate(411.976 336)">31 64 36 36 33 63 32 38</text></g><text font-family="DengXian,DengXian_MSFontService,sans-serif" font-weight="400" font-size="19" transform="translate(606.934 392)">0x55679928</text><path d="M402.283 266.395 402.283 309.91" stroke="#000000" stroke-width="1.33333" stroke-linejoin="round" stroke-miterlimit="10" fill="none" fill-rule="evenodd"/><path d="M706.64 266.395 706.64 309.91" stroke="#000000" stroke-width="1.33333" stroke-linejoin="round" stroke-miterlimit="10" fill="none" fill-rule="evenodd"/><path d="M401.617 267.061 707.307 267.061" stroke="#000000" stroke-width="1.33333" stroke-linejoin="round" stroke-miterlimit="10" fill="none" fill-rule="evenodd"/><path d="M401.617 309.243 707.307 309.243" stroke="#000000" stroke-width="1.33333" stroke-linejoin="round" stroke-miterlimit="10" fill="none" fill-rule="evenodd"/><g clip-path="url(#clip7)"><text font-family="DengXian,DengXian_MSFontService,sans-serif" font-weight="400" font-size="24" transform="translate(411.883 294)">00 00 00 00 00 00 00 00</text></g><path d="M373.5 351.5C371.567 351.5 370 351.239 370 350.917L370 310.583C370 310.261 368.433 310 366.5 310 368.433 310 370 309.739 370 309.417L370 269.083C370 268.761 371.567 268.5 373.5 268.5" stroke="#000000" stroke-width="1.33333" stroke-miterlimit="8" fill="none" fill-rule="evenodd"/><text font-family="DengXian,DengXian_MSFontService,sans-serif" font-weight="400" font-size="19" transform="translate(240.436 315)">Cookie</text><text font-family="DengXian,DengXian_MSFontService,sans-serif" font-weight="400" font-size="19" transform="translate(295.936 315)">字符串</text><text font-family="DengXian,DengXian_MSFontService,sans-serif" font-weight="400" font-size="19" transform="translate(718.436 335)">0x55679948</text><text font-family="DengXian,DengXian_MSFontService,sans-serif" font-weight="400" font-size="19" transform="translate(718.436 290)">0x55679950</text><path d="M391 520C389.619 520 388.5 519.813 388.5 519.583L388.5 479.917C388.5 479.687 387.381 479.5 386 479.5 387.381 479.5 388.5 479.313 388.5 479.083L388.5 439.417C388.5 439.187 389.619 439 391 439" stroke="#ED7D31" stroke-width="2" stroke-miterlimit="8" fill="none" fill-rule="evenodd"/><path d="M386.537 479.831 384.287 480.081 384.363 480.064 382.113 480.876 382.159 480.855 379.972 482.043 380.02 482.011 377.895 483.699 377.927 483.67 375.864 485.795 375.883 485.774 373.883 488.211 373.91 488.174 370.285 494.111 370.305 494.072 367.242 501.01 367.256 500.972 364.881 508.785 364.891 508.747 363.391 517.059 363.395 517.022 362.833 525.647 362.833 525.606 363.083 529.918 363.079 529.884 363.767 534.134 363.761 534.107 364.823 538.357 364.813 538.322 366.313 542.385 366.297 542.348 370.297 550.161 370.266 550.111 375.516 557.049 375.482 557.011 381.607 562.948 381.57 562.917 384.945 565.355 384.923 565.34 388.423 567.465 388.391 567.448 392.016 569.135 391.961 569.116 396.673 570.379 396.5 571.023 391.761 569.752 388.093 568.044 384.566 565.903 381.16 563.444 375 557.472 369.717 550.49 365.694 542.634 364.181 538.536 363.111 534.255 362.418 529.974 362.166 525.624 362.731 516.959 364.238 508.609 366.624 500.759 369.704 493.783 373.353 487.807 375.376 485.34 377.463 483.19 379.628 481.471 381.863 480.258 384.174 479.423 386.463 479.169ZM395.835 566.552 403.186 571.648 394.699 574.471Z" fill="#ED7D31"/><rect x="403.5" y="533.5" width="329" height="77" stroke="#000000" stroke-width="1.33333" stroke-miterlimit="8" fill="#FFFFFF"/><text font-family="DengXian,DengXian_MSFontService,sans-serif" font-weight="400" font-size="19" transform="translate(412.343 555)">注入代码</text><text font-family="DengXian,DengXian_MSFontService,sans-serif" font-weight="400" font-size="19" transform="translate(487.01 555)">: mov $0x55679948,%rdi</text><text font-family="DengXian,DengXian_MSFontService,sans-serif" font-weight="400" font-size="19" transform="translate(508.343 578)">pushq $0x4017ef</text><text fill="#FF0000" font-family="DengXian,DengXian_MSFontService,sans-serif" font-weight="400" font-size="19" transform="translate(650.676 578)">[touch3]</text><text font-family="DengXian,DengXian_MSFontService,sans-serif" font-weight="400" font-size="19" transform="translate(508.343 600)">retq</text><path d="M0.0188858 0.666399-15.4186 1.1039-15.3833 1.10196-30.6958 2.35196-30.6623 2.34837-45.7248 4.34837-45.6925 4.34328-60.38 7.03078-60.3491 7.02435-74.5991 10.3369-74.5622 10.3272-88.1872 14.3272-88.1578 14.3178-101.033 18.7553-100.995 18.7409-113.057 23.7409-113.018 23.7233-124.081 29.1608-124.043 29.1404-134.043 34.8904-133.995 34.8599-142.807 40.9849-142.754 40.9437-150.191 47.3187-150.145 47.2748-153.332 50.5873-153.309 50.562-156.184 53.8745-156.142 53.8212-158.517 57.1962-158.494 57.1601-160.556 60.5351-160.518 60.4634-162.081 63.9009-162.057 63.8427-163.245 67.2802-163.221 67.191-163.908 70.691-163.898 70.6109-164.148 74.0484-164.155 73.8923-163.592 77.3298-163.649 77.148-161.962 80.648-162.042 80.521-159.292 83.9585-159.366 83.8799-155.554 87.3174-155.614 87.269-150.864 90.644-150.913 90.6126-145.163 93.9876-145.204 93.9651-138.517 97.2776-138.551 97.2617-130.926 100.512-130.948 100.503-122.51 103.753-122.537 103.743-113.287 106.868-113.302 106.863-103.24 109.988-103.259 109.983-92.4468 112.983-92.46 112.979-80.96 115.917-80.9727 115.913-68.7227 118.788-68.7351 118.786-55.9226 121.536-55.9353 121.533-42.4353 124.158-42.4425 124.157-28.4425 126.719-28.4524 126.717-13.8899 129.155-13.8992 129.153 1.22576 131.466 1.21555 131.465 16.7156 133.59 16.7102 133.589 32.7102 135.651 32.7036 135.65 49.0161 137.588 49.0025 137.587 82.815 140.899 82.8012 140.898 117.676 143.585 117.662 143.584 153.412 145.584 153.398 145.584 189.773 146.834 189.758 146.833 219.665 147.175 219.65 148.508 189.735 148.167 153.345 146.916 117.581 144.915 82.6919 142.227 48.8657 138.913 32.5431 136.974 16.5371 134.911 1.02934 132.785-14.1054 130.471-28.6775 128.032-42.6861 125.468-56.1961 122.841-69.0211 120.088-81.2837 117.21-92.7966 114.269-103.626 111.265-113.706 108.134-122.977 105.002-131.438 101.743-139.091 98.4808-145.817 95.1494-151.612 91.7477-156.418 88.3335-160.299 84.8338-163.13 81.295-164.892 77.6402-165.483 74.0301-165.224 70.4737-164.52 66.8886-163.307 63.3777-161.715 59.8746-159.62 56.4465-157.213 53.0261-154.305 49.6751-151.083 46.3272-143.596 39.9093-134.732 33.7488-124.689 27.9738-113.587 22.5173-101.486 17.5014-88.5776 13.0522-74.9195 9.04246-60.6355 5.72207-45.9164 3.02878-30.821 1.02441-15.4741-0.228397-0.0188858-0.666399ZM218.37 143.827 226.324 147.918 218.279 151.826Z" fill="#FF0000" transform="matrix(-1 1.22465e-16 1.22465e-16 1 936.824 370.5)"/><path d="M714.601 514.935 713.898 442.173 715.231 442.16 715.935 514.922ZM710.578 443.538 714.5 435.5 718.577 443.461Z" fill="#FF0000"/><path d="M597.5 595.833 795.521 595.833 795.521 597.167 597.5 597.167ZM794.187 592.5 802.187 596.5 794.187 600.5Z" fill="#FF0000"/><text font-family="DengXian,DengXian_MSFontService,sans-serif" font-weight="400" font-size="24" transform="translate(804.461 595)">touch3</text></g></svg>